<svg xmlns="http://www.w3.org/2000/svg" viewBox="0 0 2080 2080"><defs><style>.cls-1,.cls-10,.cls-11,.cls-12,.cls-13,.cls-14,.cls-15,.cls-16,.cls-17,.cls-18,.cls-19,.cls-2,.cls-20,.cls-3,.cls-4,.cls-5,.cls-6,.cls-7,.cls-8,.cls-9{fill:#1d6bad;}.cls-10,.cls-11,.cls-12,.cls-13,.cls-14,.cls-15,.cls-16,.cls-17,.cls-18,.cls-19,.cls-2,.cls-20,.cls-3,.cls-4,.cls-5,.cls-6,.cls-7,.cls-8,.cls-9{isolation:isolate;font-family:TimesNewRomanPS-BoldMT, Times New Roman;font-weight:700;}.cls-2{font-size:203px;}.cls-3{font-size:203px;}.cls-4{font-size:202.99px;}.cls-5{font-size:203px;}.cls-6{font-size:202.99px;}.cls-7{font-size:203px;}.cls-8{font-size:202.99px;}.cls-9{font-size:203.46px;}.cls-10{font-size:202.99px;}.cls-11{font-size:202.99px;}.cls-12{font-size:202.99px;}.cls-13{font-size:202.99px;}.cls-14{font-size:203px;letter-spacing:-0.02em;}.cls-15{font-size:203px;}.cls-16{font-size:202.44px;}.cls-17{font-size:202.99px;}.cls-18{font-size:203px;}.cls-19{font-size:203.27px;letter-spacing:-0.02em;}.cls-20{font-size:203px;letter-spacing:-0.04em;}</style></defs><title>cqu_logo</title><g id="图层_2" data-name="图层 2"><g id="图层_1-2" data-name="图层 1"><g id="蓝色"><g id="_编组_31" data-name=" 编组 31"><g id="_编组_32" data-name=" 编组 32"><path id="_路径_" data-name=" 路径 " class="cls-1" d="M373.73,860.46a303.54,303.54,0,0,0,61.91,193.33S516.18,947,508.36,909a208.35,208.35,0,0,1-41.45,28.56,334.91,334.91,0,0,0,0-140.33A317.72,317.72,0,0,0,418.55,920c0,1.41-2.46,0-2.46,0S381.45,868.06,373.73,860.46Z"/><path id="_路径_2" data-name=" 路径 2" class="cls-1" d="M977.36,1678.66a403,403,0,0,1-142.18,15.21c-49.27-4.13-102.82-21.83-135.27-54,21.36,3.15,65,6.84,84.45-6.74a738.22,738.22,0,0,1-117.91-23.35,191.62,191.62,0,0,1-91.54-61A572.1,572.1,0,0,1,688.27,1567c1.64-19.56-4-25.31-25-27.81A280.65,280.65,0,0,1,561.82,1505a197.56,197.56,0,0,1-77.46-73.65,196.08,196.08,0,0,1,62.55,20.86c4.27,1.63,13,5.65,23.36,10.32v-2.72a29.31,29.31,0,0,0-8.72-20.42,133,133,0,0,0-22.73-10.64,360.92,360.92,0,0,1-150.73-149,540,540,0,0,1,79.64,36.6c6.54-12.49-5.64-18.14-21.09-30.52a265.71,265.71,0,0,1-55.55-65.28,295.45,295.45,0,0,1-30.54-79.94,456,456,0,0,1,56.27,45.73c1.63-4.13,3.09-7.5,3.36-8.37a28.64,28.64,0,0,0-7.36-23.35,317.13,317.13,0,0,1-39.18-74.84,361.17,361.17,0,0,1-9.19-83.31q25.23,35.52,50.64,71.26a139.52,139.52,0,0,0,25.18,30.52,251.63,251.63,0,0,1,19.55-49.86,304,304,0,0,1,35.36-43.12,156.55,156.55,0,0,1-15.27,103.51,651.81,651.81,0,0,0-37.36,100.8,95.34,95.34,0,0,0,18.9,15.21c3.82-1.09,18-71.58,35.37-97.43,6.54,32.91,10.82,66.8,17.09,99.92,4.73,23.9-11.09,72.56-21.82,102.32a204.41,204.41,0,0,0,36.64,24.55A236.65,236.65,0,0,1,535,1259.3a258.41,258.41,0,0,1,36.27,65,204.94,204.94,0,0,1,19.09,58.54v9.78c0,20.42-6.72,41.82,0,61,2.64,7.6,4.82,15.21,6.73,23a292.43,292.43,0,0,0,41.36,15.2,250.23,250.23,0,0,1-19.09-44.53,86.31,86.31,0,0,1-1.54-47.79,225,225,0,0,0,51.54,57.67,192.54,192.54,0,0,1,37.09,41.39,77.48,77.48,0,0,1,8.82,20.63,303.35,303.35,0,0,1,14.18,61c19.82,7.17,34.82,12.81,51.82,20.42l-49.91-93.3a358,358,0,0,1,137.28,88.3c16.45,17.38,31.54,36.28,49.54,52.14A229,229,0,0,0,977.36,1678.66Z"/></g><g id="_编组_33" data-name=" 编组 33"><path id="_路径_3" data-name=" 路径 3" class="cls-1" d="M1703,860.46a303.59,303.59,0,0,1-61.91,193.33S1560.55,947,1568.36,909a202.62,202.62,0,0,0,41.46,28.67,334.91,334.91,0,0,1,0-140.33,317.87,317.87,0,0,1,48.36,122.74c0,1.41,2.46,0,2.46,0S1695.27,868.06,1703,860.46Z"/><path id="_路径_4" data-name=" 路径 4" class="cls-1" d="M1099.36,1678.66a403,403,0,0,0,142.19,15.21c49.27-4.13,102.81-21.83,135.27-54-21.37,3.15-65,6.84-84.46-6.74a738,738,0,0,0,117.91-23.35,191.6,191.6,0,0,0,91.55-61A572.32,572.32,0,0,0,1388.45,1567c-1.63-19.56,4-25.31,25-27.81A280.64,280.64,0,0,0,1514.91,1505a197.46,197.46,0,0,0,77.45-73.65,195.94,195.94,0,0,0-62.54,20.86c-4.27,1.63-13,5.65-23.37,10.32v-2.72a29.54,29.54,0,0,1,8.55-20,134.32,134.32,0,0,1,22.73-11.19,360.84,360.84,0,0,0,150.72-149,533.64,533.64,0,0,0-79.45,36.6c-6.55-12.49,5.64-18.14,21.09-30.52a265.71,265.71,0,0,0,55.55-65.28,295.45,295.45,0,0,0,30.54-79.94,455.46,455.46,0,0,0-56.27,45.73c-1.64-4.13-3.09-7.5-3.36-8.37a28.6,28.6,0,0,1,7.36-23.35,317.68,317.68,0,0,0,39.18-74.84,361.69,361.69,0,0,0,9.18-83.3q-25.23,35.5-50.63,71.25a139.56,139.56,0,0,1-25.19,30.52,251,251,0,0,0-19.54-49.86,330.93,330.93,0,0,0-35.64-42.79A156.55,156.55,0,0,0,1596.55,1109a652.84,652.84,0,0,1,37.36,100.8A95.35,95.35,0,0,1,1615,1225c-3.82-1.08-18-71.57-35.36-97.43-6.55,32.92-10.82,66.8-17.09,99.93-4.73,23.9,11.09,72.56,21.81,102.32a204.86,204.86,0,0,1-36.63,24.55,236.72,236.72,0,0,0-6.28-94.83,258.65,258.65,0,0,0-36.27,65,205.25,205.25,0,0,0-19.09,58.54v9.78c0,20.42,6.73,41.81,0,61-2.64,7.6-4.82,15.2-6.73,23a291.25,291.25,0,0,1-41.36,15.21,249.5,249.5,0,0,0,19.09-44.53,86.31,86.31,0,0,0,1.55-47.79,225.05,225.05,0,0,1-51.55,57.67,192.33,192.33,0,0,0-36.18,41.6,77.41,77.41,0,0,0-8.82,20.64,304.1,304.1,0,0,0-14.18,61c-19.82,7.17-34.82,12.82-51.82,20.42l49.91-93.3a357.89,357.89,0,0,0-137.27,88.3c-16.46,17.38-31.55,36.28-49.55,52.14A231.93,231.93,0,0,1,1099.36,1678.66Z"/></g><path id="_路径_5" data-name=" 路径 5" class="cls-1" d="M645.64,780.08H683c3.82,0,3.82-17.38,3.82-17.38H715V875.23h22.09v31.82H645.55V875.77h25.9V813.21h-25.9V780.08Z"/><path id="_路径_6" data-name=" 路径 6" class="cls-1" d="M1081.82,811.47h32.45s2.09-20.09,19.55-20.09,22.45,10.32,19.09,20.85c-15.27,28.24-51.27,26.4-71.09,70.82v23h112.82V865.45h-30.55v16.19h-47.73c12.64-30.52,83.73-18.14,78.55-81.14a47.51,47.51,0,0,0-51.73-40.62C1095.09,760,1079.18,798.11,1081.82,811.47Z"/><path id="_复合路径_" data-name=" 复合路径 " class="cls-1" d="M850.18,811.47c1.09-25,11.09-48.77,59.46-48.77s65,30.52,65,72.34-9.73,76.25-62.19,76.25-58-37.8-58-37.8h39c10.82,25.63,47.46,9,41.19-22.16C882.64,868.39,852.55,853.4,850.18,811.47Zm62.18-20.42a22,22,0,1,0,20.73,23.14v-.87a21.39,21.39,0,0,0-20.36-22.27Z"/><path id="_复合路径_2" data-name=" 复合路径 2" class="cls-1" d="M1300.36,811.47c1.09-25,11.09-48.77,59.46-48.77s65,30.52,65,72.34-9.73,76.25-62.18,76.25-58-37.8-58-37.8h39c10.81,25.63,47.45,9,41.18-22.16C1332.82,868.39,1303,853.4,1300.36,811.47Zm62.09-20.42a22,22,0,1,0,20.91,23v-.76a21.4,21.4,0,0,0-20.45-22.27Z"/><text class="cls-2" transform="matrix(-0.35, 0.94, -0.94, -0.35, 232.6, 661.28)">C</text><text class="cls-3" transform="matrix(-0.13, 0.99, -0.99, -0.13, 168.99, 844.9)">H</text><text class="cls-4" transform="matrix(0.1, 1, -1, 0.1, 147.36, 1049.11)">O</text><text class="cls-5" transform="matrix(0.32, 0.95, -0.95, 0.32, 173.14, 1253.05)">N</text><text class="cls-6" transform="matrix(0.52, 0.85, -0.85, 0.52, 239.17, 1435.75)">G</text><text class="cls-7" transform="matrix(0.7, 0.71, -0.71, 0.7, 351.11, 1608.24)">Q</text><text class="cls-8" transform="matrix(0.82, 0.57, -0.57, 0.82, 497.99, 1746.42)">I</text><text class="cls-9" transform="matrix(0.91, 0.42, -0.42, 0.91, 598.64, 1815.81)">N</text><text class="cls-10" transform="matrix(0.98, 0.21, -0.21, 0.98, 776.93, 1893.29)">G</text><text class="cls-11" transform="matrix(0.98, -0.21, 0.21, 0.98, 1153.03, 1924.4)">U</text><text class="cls-12" transform="matrix(0.91, -0.42, 0.42, 0.91, 1341.09, 1878.96)">N</text><text class="cls-13" transform="matrix(0.82, -0.57, 0.57, 0.82, 1510.53, 1794)">I</text><text class="cls-14" transform="matrix(0.71, -0.7, 0.7, 0.71, 1610.74, 1723.55)">V</text><text class="cls-15" transform="matrix(0.55, -0.84, 0.84, 0.55, 1743.74, 1584.3)">E</text><text class="cls-16" transform="matrix(0.36, -0.93, 0.93, 0.36, 1839.97, 1429.8)">R</text><text class="cls-17" transform="matrix(0.17, -0.99, 0.99, 0.17, 1903.42, 1249.38)">S</text><text class="cls-18" transform="matrix(0.02, -1, 1, 0.02, 1925.22, 1097)">I</text><text class="cls-19" transform="matrix(-0.15, -0.99, 0.99, -0.15, 1926.3, 975.64)">T</text><text class="cls-20" transform="matrix(-0.35, -0.94, 0.94, -0.35, 1895.02, 796.58)">Y</text><path id="_复合路径_3" data-name=" 复合路径 3" class="cls-1" d="M2010.91,1040c0,536.13-434.64,970.81-970.73,970.81S69.45,1576.13,69.45,1040,504,69.3,1040.09,69.19s970.73,434.46,970.82,970.59ZM1040,0C465.64,0,0,465.64,0,1040S465.64,2080,1040,2080s1040-465.64,1040-1040h0C2080,465.64,1614.36,0,1040,0Z"/><path id="齿轮" class="cls-1" d="M1464.82,717.84H615.18a10.48,10.48,0,0,1-10.63-10.42,10.7,10.7,0,0,1,1.63-5.76,442.7,442.7,0,0,1,88.46-97.43,10.42,10.42,0,0,1,14.81.76l.37.44,20.27,23.46,9.27,10.86A10.53,10.53,0,0,0,752.64,642L822,601.41a10.48,10.48,0,0,0,4.73-12.49l-15.28-45.73a10.77,10.77,0,0,1,5.82-13.14,549,549,0,0,1,151-41.82,10.71,10.71,0,0,1,11.91,9.34v.11c.91,9,2.09,22.27,3.18,33.45s1.19,16.3,5.19,20.31,89.63,2.29,89.63,2.29a10.68,10.68,0,0,0,10.55-9.13l6.27-48a10.78,10.78,0,0,1,11.73-9.34,552.45,552.45,0,0,1,148.36,38.89,10.7,10.7,0,0,1,5.82,13.25l-15.27,45.73a10.58,10.58,0,0,0,4.27,12.38l68.64,44.2a10.55,10.55,0,0,0,13.72-2L1365.82,601a10.6,10.6,0,0,1,15-1.52c.09.11.18.11.27.22A440.47,440.47,0,0,1,1475.36,702a10.49,10.49,0,0,1-3.54,14.44A9.76,9.76,0,0,1,1464.82,717.84Z"/><g id="_编组_34" data-name=" 编组 34"><rect id="_路径_7" data-name=" 路径 7" class="cls-1" x="1012" y="1634.89" width="56.45" height="17.38"/><rect class="cls-1" x="992.73" y="1602.74" width="94.91" height="17.38"/><rect class="cls-1" x="973.55" y="1570.37" width="133.18" height="17.38"/><rect class="cls-1" x="954.27" y="1538.22" width="171.55" height="17.38"/><rect class="cls-1" x="935.09" y="1505.85" width="209.82" height="17.38"/><rect class="cls-1" x="916" y="1473.7" width="248.27" height="17.38"/><rect class="cls-1" x="896.82" y="1441.45" width="286.55" height="17.38"/><rect class="cls-1" x="877.64" y="1409.19" width="325" height="17.38"/><rect class="cls-1" x="858.36" y="1376.93" width="363.27" height="17.38"/><rect class="cls-1" x="839.18" y="1344.67" width="401.73" height="17.38"/><rect class="cls-1" x="820.09" y="1312.41" width="440.18" height="17.38"/><rect class="cls-1" x="800.91" y="1280.15" width="478.45" height="17.38"/><rect class="cls-1" x="781.64" y="1247.89" width="516.91" height="17.38"/><rect class="cls-1" x="762.45" y="1215.63" width="555.18" height="17.38"/><rect class="cls-1" x="743.36" y="1183.37" width="593.55" height="17.38"/><rect class="cls-1" x="724.18" y="1151.11" width="631.91" height="17.38"/><rect class="cls-1" x="704.91" y="1118.86" width="670.27" height="17.38"/><rect class="cls-1" x="685.73" y="1086.6" width="708.73" height="17.38"/><rect class="cls-1" x="666.55" y="1054.34" width="747" height="17.38"/><rect class="cls-1" x="647.45" y="1022.08" width="785.45" height="17.38"/><rect id="_路径_8" data-name=" 路径 8" class="cls-1" x="628.27" y="989.82" width="823.73" height="17.38"/></g><g id="_编组_35" data-name=" 编组 35"><path id="_复合路径_4" data-name=" 复合路径 4" class="cls-1" d="M1040.18,1757l-613-1063h1225l-13.91,26Zm-553-1028.49L1040,1687.57l552.91-959.08Z"/><rect id="_路径_9" data-name=" 路径 9" class="cls-1" x="597.45" y="937.03" width="883.64" height="34.65"/><path id="_复合路径_5" data-name=" 复合路径 5" class="cls-1" d="M1198,1483.15,1120.18,1344l-81.09,138.37L1023.82,1458,956.73,1344l-62.82,112.41-30.55-16.94,72.73-130.23L878,1209.77,811.18,1315l-29.27-18.58L879.09,1144l76.27,130.88L1037,1129.07l15.27,25.3,67.46,120.46L1196,1144l102.82,161.94ZM976.27,1309l62.18,106.77L1100.64,1309l-62.19-111Zm164.28,0,58,103.51,61-106.77-61-96.34Z"/></g><g id="校名毛笔字"><g id="学"><path id="_路径_10" data-name=" 路径 10" class="cls-1" d="M615.09,456.62a93.26,93.26,0,0,0,1.64,18.79c0,5.33,1.36,10.86,1.54,16.19a9.41,9.41,0,0,1-6.72,9.77,29.84,29.84,0,0,1-13.55,3.7,6.73,6.73,0,0,1-6.09-4.57,74.07,74.07,0,0,1-4.46-22.59c-.9-9.56-1.54-19.33-2-29.11a146.91,146.91,0,0,1-.9-16.62,5.36,5.36,0,0,0,0-2.39,19.81,19.81,0,0,0-2.64,6c-4.27,12.81-8.82,25.63-12.09,38.88a209.12,209.12,0,0,0-3.37,24.88,108.61,108.61,0,0,1-4.9,26.28,48.57,48.57,0,0,1-5.64,10.1,10.58,10.58,0,0,1-7.91,4.24,120.39,120.39,0,0,0-30.55,8.36,19.11,19.11,0,0,1-11,1.52,6.5,6.5,0,0,1-2.27-2.6,16.25,16.25,0,0,1,0-16.95c4.46-10.21,9.46-20.09,14.18-30.52l11.28-24.55L551,428.49c6.27-13.68,12.36-27.26,18.27-41.16a6.28,6.28,0,0,0-2.18-8.59,9.93,9.93,0,0,0-1.82-.76,9,9,0,0,1-6.09-3.47,10.57,10.57,0,0,1,1.37-12.38l5.9-7.82c0-.87,1.64-1.2,2-2.29l2-1.95a24.1,24.1,0,0,1,4.73-4.24,21.38,21.38,0,0,1,17.27,1.63,3,3,0,0,1,1.82,2.94,8.15,8.15,0,0,0,1.09,3.47l2.46-2.17a8.4,8.4,0,0,1,9.63-1.85,114,114,0,0,1,12.82,5.54,11.64,11.64,0,0,1,2.73,3A14.12,14.12,0,0,1,623,369a144.34,144.34,0,0,1-7,16.18,15.26,15.26,0,0,0,0,14c0,1.85,1.55,0,2,0a35.74,35.74,0,0,0,4.73-17.27,8.9,8.9,0,0,1,3.09-2.6c4.54-.76,9.18,0,13.73-1.52a11.4,11.4,0,0,1,9,1.19,24.17,24.17,0,0,1,3.81,4.45,35,35,0,0,1,2.91,15.21c0,6.52,1.82,12.93,2,19.66a91.11,91.11,0,0,1-1.63,18.57c0,2.94-3.37,4.24-5.46,5.76a18.79,18.79,0,0,1-4.73,2.61c-2.09.76-2.27,2.17-1.81,4.12a137.89,137.89,0,0,0,7.18,17.71c1.82,4.78,3.82,9.34,5.45,14a2.75,2.75,0,0,0,3.18,2.17,19.83,19.83,0,0,1,15.28,4,22.47,22.47,0,0,1,4.27,4.89,52.36,52.36,0,0,1,3.09,16.29c0,3,.91,6.08,1.36,10.1,4-8,6.55-16,10.37-23.35.73-1.52,2.63-1.95,3.36-3.47l1.09-1.2a7.24,7.24,0,0,1,2.64-2.28h3.54a5.57,5.57,0,0,1,5.91,4.78c.64,2.17,1.09,4.45,1.55,6.73a8.76,8.76,0,0,0,5.18,6.85c1.09,0,1.82,1.41,2.91,2a4.4,4.4,0,0,1,2.09,5.87c-.09.21-.18.32-.27.54l-6.09,11.19c-5.46,9.55-10.82,19.22-16.37,28.67-1.81,3.15-4.09,6.41-6.09,9.45a11.72,11.72,0,0,1-3.09,2.72A15,15,0,0,1,680,567c-2.64,0-5.18-1.85-7.82-2.18s-6.36-3.69-7.63-7.82a98.43,98.43,0,0,0-5.82-18.9c-4.46-8.36-8.09-17.27-12.09-26-.91-1.95-1.82-3.36-4.73-1.84a7.08,7.08,0,0,1-9.27-2.17,26.21,26.21,0,0,1-3.82-4.24c-2.73-4.13-2.91-4.13,0-8a6.62,6.62,0,0,0,0-7.06c-3.82-8.69-7.64-17.38-10.82-26.28a28.61,28.61,0,0,0-2-3.8C616,458.58,616,455.64,615.09,456.62Z"/><path id="_路径_11" data-name=" 路径 11" class="cls-1" d="M508.36,277.08a22,22,0,0,1-2.72-17.7,27.58,27.58,0,0,1,2.72-11.95,7.24,7.24,0,0,1,2.64-2.28,28.18,28.18,0,0,1,6.09,0,6.26,6.26,0,0,1,5,2.39,30.84,30.84,0,0,0,8.73,6.73,7.36,7.36,0,0,0,4,.76A23.48,23.48,0,0,1,547,257a19.87,19.87,0,0,1,8.73,13.57A201,201,0,0,1,559.55,308a122.94,122.94,0,0,1,0,23c-.73,5-2.28,9.89-2.91,15.21-1.37,9.23-2.46,18.46-3.37,27.8a153.79,153.79,0,0,0,0,27.48,22.67,22.67,0,0,1-2,13.15,7.32,7.32,0,0,1-2.63,2.28,13.66,13.66,0,0,1-9.73-.33,2.55,2.55,0,0,1-1.82-1.63A164.57,164.57,0,0,1,529,377c-1.64-14.45-3.55-29-5.45-43.34-1.55-11.19-2.28-22.27-3.37-33.56a28,28,0,0,0-5.45-14.23C512.64,282.29,509.55,279.58,508.36,277.08Z"/><path id="_路径_12" data-name=" 路径 12" class="cls-1" d="M508.36,277.08a90.2,90.2,0,0,1,6.73,8.25A45.36,45.36,0,0,1,508.36,277.08Z"/><path id="_路径_13" data-name=" 路径 13" class="cls-1" d="M574.27,345l-4.72,4.24A9,9,0,0,1,574.27,345Z"/><path id="_路径_14" data-name=" 路径 14" class="cls-1" d="M678.45,490.18l-4.27-4.88A9.79,9.79,0,0,1,678.45,490.18Z"/><path id="_路径_15" data-name=" 路径 15" class="cls-1" d="M651.09,381.89l-3.82-4.45A7.79,7.79,0,0,1,651.09,381.89Z"/><path id="_路径_16" data-name=" 路径 16" class="cls-1" d="M628.82,502.78l3.82,4.24A8,8,0,0,1,628.82,502.78Z"/><path id="_路径_17" data-name=" 路径 17" class="cls-1" d="M697.18,491c0,1.62-2.27,2.38-3.36,3.47C694.27,493,695.91,492.14,697.18,491Z"/><path id="_路径_18" data-name=" 路径 18" class="cls-1" d="M621.82,357.67l-2.73-3A4.09,4.09,0,0,1,621.82,357.67Z"/><path id="_路径_19" data-name=" 路径 19" class="cls-1" d="M690.18,566.22l3.09-2.72A4.41,4.41,0,0,1,690.18,566.22Z"/><path id="_路径_20" data-name=" 路径 20" class="cls-1" d="M624.73,377.88l-3.09,2.6A3.94,3.94,0,0,1,624.73,377.88Z"/><path id="_路径_21" data-name=" 路径 21" class="cls-1" d="M700.82,487.36l-2.64,2.28A3.31,3.31,0,0,1,700.82,487.36Z"/><path id="_路径_22" data-name=" 路径 22" class="cls-1" d="M511.73,245.26l-3.37,2.28A3,3,0,0,1,511.73,245.26Z"/><path id="_路径_23" data-name=" 路径 23" class="cls-1" d="M548.18,416.76l2.64-2.28A3,3,0,0,1,548.18,416.76Z"/><path id="_路径_24" data-name=" 路径 24" class="cls-1" d="M503.82,546.45l2.27,2.6A2.88,2.88,0,0,1,503.82,546.45Z"/><path id="_路径_25" data-name=" 路径 25" class="cls-1" d="M567.36,351.26a5,5,0,0,1-2,2.29C565.55,352.24,566.73,351.81,567.36,351.26Z"/><path id="_路径_26" data-name=" 路径 26" class="cls-1" d="M615.09,456.62c1.55-1.19,1.36,0,1.64,1.09S615.09,456.41,615.09,456.62Z"/></g><g id="大"><path id="_路径_27" data-name=" 路径 27" class="cls-1" d="M1268.64,284.68l-.91,2.72c-.73,0,0,2-1.18,2.71l-.91,2.72c-.73,0,0,1.95-1.19,2.71l-.9,2.72c-.73,0,0,2-1.19,2.72s.91,1.62,1.55,1.52a237.2,237.2,0,0,0,24.73,0,9,9,0,0,0,4-1.63,4,4,0,0,0,1.54-5.33,17.55,17.55,0,0,1-1.09-14c.91-2.6,2.73-3.36,4.27-1.41a15.48,15.48,0,0,0,13.09,6.3,7.13,7.13,0,0,1,4.91,2.39c1.82,2.39,5,2.28,7.46,3.8a11.81,11.81,0,0,1,6.36,9.13,34.36,34.36,0,0,1-1.82,6.73,24.28,24.28,0,0,1-18,15.21,191.44,191.44,0,0,1-45.72,5.54h-9.73c-.73,0-1.82,0-2.27.86s0,2-1.19,2.72a22.4,22.4,0,0,0,4,11.3,179,179,0,0,1,13.46,35.19,53.16,53.16,0,0,0,20.54,30.52,62,62,0,0,0,16.37,8.69c.91.87,2.45,0,3.36,1.41l2.73.87c0,.76,2,0,2.73,1.19,4.54,3.81,4.54,4.89,0,8.26a42.89,42.89,0,0,1-16.46,8.25h-3.82l-7.63-1.19a26,26,0,0,1-5.64-1.52,47.25,47.25,0,0,0-17.27-4,5.73,5.73,0,0,1-2.73,0,7.58,7.58,0,0,1-4.54-6.3,357.4,357.4,0,0,1-7-39.54,203.49,203.49,0,0,0-7.82-39,31.54,31.54,0,0,0-3.37,6.41,68.46,68.46,0,0,1-39.63,28.78,90.19,90.19,0,0,1-18.73,0,121.48,121.48,0,0,1-15.27-1.52c-4.37-1-8.73-2.06-13-3.47a19.34,19.34,0,0,1-12.09-9.89,15.32,15.32,0,0,1,4.09-14.23,1.08,1.08,0,0,1,1.54,0h0a18.84,18.84,0,0,0,15.28,5.22,95.15,95.15,0,0,0,28.81-2.72,53.45,53.45,0,0,0,24.55-19.22c2.27-3,2.09-3-1.55-3.7a13.27,13.27,0,0,0-10.18,3,41,41,0,0,1-13.45,6.09,3,3,0,0,1-2.73-1.63,27.37,27.37,0,0,1-2.64-4.56,17,17,0,0,0-6.81-7.83,4.15,4.15,0,0,1-2-4.45,21.8,21.8,0,0,1,10.81-15.2,7.32,7.32,0,0,1,3.09,0c11,0,22-.77,32.91-1.53a16.27,16.27,0,0,0,15.28-10.64c3.63-7.49,6.81-15.21,10.18-22.92s5.82-14.23,8.82-21.18,6.36-15.2,9.63-22.16c2-4.77,3.82-9.55,5.64-14.33.73,0,0-1.85,1.18-2.72,2.91-4,0-6.3-2.27-9s-2.46-5.54,1.36-7.82l4.09-2.72a30.25,30.25,0,0,1,21.64-3.48,3.55,3.55,0,0,1,3.09,2.72,80.16,80.16,0,0,0,6.82,16.29,12.84,12.84,0,0,1-4.27,17,53.54,53.54,0,0,0-18.28,23.13,178.4,178.4,0,0,0-9.27,23.14c-.73,0,0,1.95-1.18,2.71a32.78,32.78,0,0,0-2.73,7.61C1268.91,282.73,1269.27,283.81,1268.64,284.68Z"/><path id="_路径_28" data-name=" 路径 28" class="cls-1" d="M1150.45,378.09l13,3.48A41.18,41.18,0,0,1,1150.45,378.09Z"/><path id="_路径_29" data-name=" 路径 29" class="cls-1" d="M1327.18,308.36l1.82-6.73A10.36,10.36,0,0,1,1327.18,308.36Z"/><path id="_路径_30" data-name=" 路径 30" class="cls-1" d="M1279.91,436.2l5.64,1.52A8,8,0,0,1,1279.91,436.2Z"/><path id="_路径_31" data-name=" 路径 31" class="cls-1" d="M1308.45,420.45a6.74,6.74,0,0,1-3.36-1.41C1306.18,419.58,1307.55,419.37,1308.45,420.45Z"/><path id="_路径_32" data-name=" 路径 32" class="cls-1" d="M1270.91,212.24a5.14,5.14,0,0,1-1.18,2.71C1269.36,214.08,1269.27,213,1270.91,212.24Z"/><path id="_路径_33" data-name=" 路径 33" class="cls-1" d="M1266.55,290.22a5,5,0,0,1,1.18-2.71C1267.45,288.38,1267.55,289.57,1266.55,290.22Z"/><path id="_路径_34" data-name=" 路径 34" class="cls-1" d="M1264.36,295.65a6,6,0,0,1,1.19-2.71C1265.27,293.92,1265.45,294.78,1264.36,295.65Z"/><path id="_路径_35" data-name=" 路径 35" class="cls-1" d="M1313.91,422.63a6.45,6.45,0,0,1-2.73-1.2C1312.09,421.65,1313.36,421.54,1313.91,422.63Z"/><path id="_路径_36" data-name=" 路径 36" class="cls-1" d="M1262.36,301.19a5.08,5.08,0,0,1,1.19-2.71C1263.18,299.35,1263.27,300.54,1262.36,301.19Z"/><path id="_路径_37" data-name=" 路径 37" class="cls-1" d="M1250.82,332.8a5.06,5.06,0,0,1,1.18-2.72C1251.73,331,1251.91,332.15,1250.82,332.8Z"/><path id="_路径_38" data-name=" 路径 38" class="cls-1" d="M1268.64,284.68a5.06,5.06,0,0,1,1.18-2.71C1269.36,282.84,1269.55,283.92,1268.64,284.68Z"/><path id="_路径_39" data-name=" 路径 39" class="cls-1" d="M1272.64,274.15a5.06,5.06,0,0,1,1.18-2.72C1273.55,272.41,1273.64,273.6,1272.64,274.15Z"/><path id="_路径_40" data-name=" 路径 40" class="cls-1" d="M1259.82,432.08h2.73A2.5,2.5,0,0,1,1259.82,432.08Z"/><path id="_路径_41" data-name=" 路径 41" class="cls-1" d="M1293.09,438.92a4.4,4.4,0,0,1,2.91,0C1295,439.79,1294.09,439,1293.09,438.92Z"/></g><g id="庆"><path id="_路径_42" data-name=" 路径 42" class="cls-1" d="M900.18,278.6a3.13,3.13,0,0,0-3.63,2.39c-4,10.32-6.55,21.18-10.1,31.82-5.9,17.71-12.18,35.41-18.18,53.12-4.27,12.38-8.09,24.65-12.54,36.93a317.29,317.29,0,0,0-12.18,35.41c-1.82,7.6-3.1,15.2-5,22.91a26,26,0,0,1-8.82,15.21,13,13,0,0,1-18.28-1.63,14.89,14.89,0,0,1-2.18-3.69,44.5,44.5,0,0,1-2.27-6.74v-3a51.74,51.74,0,0,1,3.82-30.52c4.45-9.12,9.73-18,14.36-27.15a233.81,233.81,0,0,0,10.37-24.44C838.18,372,841,365,843.82,358s5.18-13.9,8.36-20.64c4.09-9,7.37-18.46,11.09-27.59s6.73-16.72,9.91-25.2,5.82-12.49,8.73-18.79L894.73,239l11.91-25.2c2-4.24,4-8.69,6.09-12.82,0-1.09,1.54-2.28,0-3.37s-2,0-2.91,1.2a468.25,468.25,0,0,1-47.09,33.45A30.68,30.68,0,0,1,844,236.67a17.33,17.33,0,0,1-12.82-6.51,20.88,20.88,0,0,0-9.63-5.54,5,5,0,0,1-3.37-5.22,9.71,9.71,0,0,1,4.91-9.12A47.07,47.07,0,0,1,833.27,205c4-1.63,8.09-2.72,12.09-4.13a7.16,7.16,0,0,0,2.91-1.19,123,123,0,0,0,27.28-14c2.9-1.63,5.45-3.81,8.36-5.76s1.64-1.52,0-2.28c-4.55-2.28-9.27-4-14-6a29.05,29.05,0,0,1-17.09-14.23,28.87,28.87,0,0,1-2-6.08,9.07,9.07,0,0,1,3.18-7.93,17.33,17.33,0,0,1,5.18-1.19,116.17,116.17,0,0,1,17.37,1.63,101.9,101.9,0,0,0,17.27,1.52,42.7,42.7,0,0,0,12.82-2,12.38,12.38,0,0,1,8.81,0,47.15,47.15,0,0,0,7.82,2.28,9.12,9.12,0,0,1,6.73,5c.73,1.41,1.36,3.37,3.18,2.72a5.06,5.06,0,0,0,3.09-4.57,10.67,10.67,0,0,1,0-4.77,9.26,9.26,0,0,1,11.91-4.89,71.28,71.28,0,0,0,9.64,4.12,12.68,12.68,0,0,1,6.54,6.3c1.55,2.61,3.09,5.22,4.55,7.82s0,2,1.36,2.72c2.73,5.76-1.63,9-4.91,12.49a118.24,118.24,0,0,1-14.18,12.17c-4.45,3.69-7.45,8.58-11.45,12.49s-5,5.54-7.64,8.36L931,207c0,.87-1.18,2.28,0,2.94s2.09,0,3.18,0a5.55,5.55,0,0,1,1.82-.87,2.69,2.69,0,0,0,2.73-1.42c3.18,0,5.18-3,7.63-4.56a8.3,8.3,0,0,1,2.73-.87c5.64,1.52,5.91,2.18,5.82,7.93,0,2-.91,4.78.73,5.65s3.18-1.41,4.91-2.17l1.81-.87a15.07,15.07,0,0,1,3.82-1.2,10.44,10.44,0,0,1,9,4.24c2.46,3.37,6.73,4.89,9,8.58a2.71,2.71,0,0,0,1.37,2.72,6.45,6.45,0,0,1-1.37,7.49,135.45,135.45,0,0,1-13,13.14,55.65,55.65,0,0,0-5,5.65,1.75,1.75,0,0,0,0,2.39c.73,1.09,1.55,0,2.27,0a15.31,15.31,0,0,0,4.28-2.28,12.87,12.87,0,0,1,4.45-1.41l7.46,2.28a20.79,20.79,0,0,1,13.72,11.95c0,1.63.91,3,1.09,4.56s0,4.56,0,6.84a7.46,7.46,0,0,1-4.45,6.84c-4.27,1.85-8.82,2.94-13.27,4.46a7.16,7.16,0,0,0-2.91,1.19,13.9,13.9,0,0,0-6.37,6.85c0,1.19-1.09,2.38,1.55,2.38a6,6,0,0,1,5.09,6.74,8.42,8.42,0,0,1-.45,1.63,20,20,0,0,0-1.19,2.93c-1.36,3.8-1.18,3.69,2.91,4.24a30,30,0,0,1,16.46,8.58,5.68,5.68,0,0,1,1.54,5.75,273.28,273.28,0,0,1-7,28.24V360a35.51,35.51,0,0,0,15.28,6.3,6.1,6.1,0,0,0,2,0h3.54a3.23,3.23,0,0,1,3.55,2.83h0a17,17,0,0,1-7.82,21.61,33.33,33.33,0,0,1-6.55,2.17,19.84,19.84,0,0,1-15.27-2.38c-2-1.2-3.09-3.37-5.18-4.46s-1.64,0-2.09.87a26.79,26.79,0,0,1-3.09,9.34,9.57,9.57,0,0,1-3.18,3.15,15.48,15.48,0,0,1-4.46,1.41h-5.18a71.79,71.79,0,0,1-14.46,1.52c-4.27,0-6.27-1.84-5.63-6.08a17,17,0,0,1,3.09-10.1,3.59,3.59,0,0,1,2.64-1.63,9,9,0,0,0,8.09-5.21c1.54-2.28,3.36-4.46,4.91-6.52a6.68,6.68,0,0,0,1.18-5.21,6.07,6.07,0,0,0-1.09-3.7,16.52,16.52,0,0,1-3.09-8.25,5.53,5.53,0,0,1,3.54-5.54,2.7,2.7,0,0,0,2.73-1.41c5.63-1.41,7-4.89,5.91-8.37a2.19,2.19,0,0,0-2.55-2,2.56,2.56,0,0,0-1.54.87c-2.37,2.61-4.64,5.32-6.73,8a17,17,0,0,1-9,8c-4.55.87-5.18,3.7-6.27,7.17a316.42,316.42,0,0,1-13.91,40.41c-1.82,4.23-2.46,9-4.28,13.25a25.73,25.73,0,0,1-5.63,8.69A9.48,9.48,0,0,1,917,426a15.34,15.34,0,0,1-17.73-9.77,10.74,10.74,0,0,1,1.55-10.54c2.09-3.37,3.18-7.06,4.91-10.32s2.63-6.41,4-9.55c3.09-7.07,6.09-14.23,8.72-21.4,1.82-4.78,4.1-9.34,6.1-14a258.71,258.71,0,0,0,11.09-26.72c.91-3.15,0-4.13-3.09-5.22l-4.91-1.52c-5.19-1.52-6.09-2.93-5.46-8s0-7.16,5.18-6.73c-1.54-2.17-3.63-2.17-5.36-2.71s-7.64-2-9.18-6.52a7.5,7.5,0,0,0-2.91-3.37,9.46,9.46,0,0,1-4-12.82h0c0-.86-.73,0-1.18,0h0A6.66,6.66,0,0,1,900.18,278.6Z"/><path id="_路径_43" data-name=" 路径 43" class="cls-1" d="M918.91,330.3a28.65,28.65,0,0,1,0,17.05,11.93,11.93,0,0,1-6.55,6.3,43.84,43.84,0,0,1-14.36,4,9.23,9.23,0,0,1-10.55-7.82,9.84,9.84,0,0,1-.09-1.63A40,40,0,0,1,889.82,338a27.35,27.35,0,0,1,6.27-10.53,66.85,66.85,0,0,1,9.18-12.38c1.37-1.2,2.73-2.61,4.73-1.85s4.09,2.17,4.09,4.78a9.43,9.43,0,0,0,3.82,6.84A35.88,35.88,0,0,1,918.91,330.3Z"/><path id="_路径_44" data-name=" 路径 44" class="cls-1" d="M979,289.9a44.75,44.75,0,0,1,9.73-3.7l6.36-1.95a44.72,44.72,0,0,1-9.73,3.69Z"/><path id="_路径_45" data-name=" 路径 45" class="cls-1" d="M848.73,199.64A129.15,129.15,0,0,1,833.45,205a66.2,66.2,0,0,1,11.91-4.45Z"/><path id="_路径_46" data-name=" 路径 46" class="cls-1" d="M1002.18,391.67l6.55-2.17A11.77,11.77,0,0,1,1002.18,391.67Z"/><path id="_路径_47" data-name=" 路径 47" class="cls-1" d="M850.73,151.52l2,6.08A10.12,10.12,0,0,1,850.73,151.52Z"/><path id="_路径_48" data-name=" 路径 48" class="cls-1" d="M918.91,330.3l-1.64-5A8.08,8.08,0,0,1,918.91,330.3Z"/><path id="_路径_49" data-name=" 路径 49" class="cls-1" d="M859.18,142.29l-4.91,1.63A6.7,6.7,0,0,1,859.18,142.29Z"/><path id="_路径_50" data-name=" 路径 50" class="cls-1" d="M976.55,251.77l-4.46,1.41A5.07,5.07,0,0,1,976.55,251.77Z"/><path id="_路径_51" data-name=" 路径 51" class="cls-1" d="M968.45,399.6l4.46-1.41A5.55,5.55,0,0,1,968.45,399.6Z"/><path id="_路径_52" data-name=" 路径 52" class="cls-1" d="M998.82,270.56a10.1,10.1,0,0,1-1.09-4.56C998.09,267.52,999.18,268.83,998.82,270.56Z"/><path id="_路径_53" data-name=" 路径 53" class="cls-1" d="M965.91,211.37l-3.82,1.19A4.49,4.49,0,0,1,965.91,211.37Z"/><path id="_路径_54" data-name=" 路径 54" class="cls-1" d="M916,426.43l3.82-1.2A4.07,4.07,0,0,1,916,426.43Z"/><path id="_路径_55" data-name=" 路径 55" class="cls-1" d="M900.18,278.6l3.18-1.09A3,3,0,0,1,900.18,278.6Z"/><path id="_路径_56" data-name=" 路径 56" class="cls-1" d="M961.82,363.76a4,4,0,0,1,1.09,3.69Z"/><path id="_路径_57" data-name=" 路径 57" class="cls-1" d="M1013.18,365a6.45,6.45,0,0,1-3.54,0C1010.91,365.38,1011.64,364.52,1013.18,365Z"/><path id="_路径_58" data-name=" 路径 58" class="cls-1" d="M970.36,160.43a6.11,6.11,0,0,1-1.36-2.94C970,157.49,969.91,159.34,970.36,160.43Z"/><path id="_路径_59" data-name=" 路径 59" class="cls-1" d="M948.64,202.24,946,203.33A2.61,2.61,0,0,1,948.64,202.24Z"/><path id="_路径_60" data-name=" 路径 60" class="cls-1" d="M938.27,207.57a5.26,5.26,0,0,1-2.72,1.41C936.18,207.89,937.36,208,938.27,207.57Z"/><path id="_路径_61" data-name=" 路径 61" class="cls-1" d="M904,277.3a1.12,1.12,0,0,1,1.36-1.09c1.37.11,0,0,0,1.09Z"/><path id="_路径_62" data-name=" 路径 62" class="cls-1" d="M963.18,400.58a4.4,4.4,0,0,1,2.91,0C965.91,400.36,964.18,401.55,963.18,400.58Z"/><path id="_路径_63" data-name=" 路径 63" class="cls-1" d="M965,348.77a6.86,6.86,0,0,1-2.73,1.41C962.82,349.09,964.09,349.2,965,348.77Z"/><path id="_路径_64" data-name=" 路径 64" class="cls-1" d="M806.36,461.29a5.61,5.61,0,0,1,0,3C806.64,462.6,805.91,462.6,806.36,461.29Z"/><path id="_路径_65" data-name=" 路径 65" class="cls-1" d="M985.09,227.12a5.33,5.33,0,0,1-1.36-2.72C984.82,224.94,984.82,226.14,985.09,227.12Z"/><path id="_路径_66" data-name=" 路径 66" class="cls-1" d="M952.82,264.26a123.64,123.64,0,0,0-7,14c0,1.85-1.82,1.85-3.55,1.85a168.88,168.88,0,0,0-19.63,1.2s-1.09,0-.91-.76a177.39,177.39,0,0,1,25.82-15.21l3.18-1.09C950.64,264.26,952.45,263,952.82,264.26Z"/><path id="_路径_67" data-name=" 路径 67" class="cls-1" d="M949.09,285.66l5.91-3.8a23.79,23.79,0,0,0,8.82-9.89,3.67,3.67,0,0,1,3.09-2.28,50.1,50.1,0,0,1,6.82-1.08c1.36,0,2,0,2.45,1.84s0,1.53-1.54,2A24.21,24.21,0,0,0,964,280.66,18.24,18.24,0,0,1,949.09,285.66Z"/><path id="_路径_68" data-name=" 路径 68" class="cls-1" d="M939.09,222.77v1.85l-5.91,3.15c-1.18,0-1.18,0-1.36-1.2s0-3.69,0-5.54-1.09-3.15,1.18-3.47,4,0,5.18,1.52S938.45,221.47,939.09,222.77Z"/><path id="_路径_69" data-name=" 路径 69" class="cls-1" d="M939.09,248.08c-2,0-3.54,1.63-4.45,0s0-2.72,1.81-3.48l5.64-3s1.64-1.52,2.46,0,1.18,2.17,0,3.37A15.16,15.16,0,0,1,939.09,248.08Z"/><path id="_路径_70" data-name=" 路径 70" class="cls-1" d="M906,259.81c2.91-3.8,4.55-7.49,9-8.25.91,0,2.09-1.2,2.64,0a2.46,2.46,0,0,1-1.19,3.14A61.43,61.43,0,0,1,906,259.81Z"/><path id="_路径_71" data-name=" 路径 71" class="cls-1" d="M961.45,232.22a1.16,1.16,0,0,1,1.19,0m.09,1.3s-.91,0-1.09-.76-.64-.1-.19-.43Z"/><path id="_路径_72" data-name=" 路径 72" class="cls-1" d="M921.64,279.58l.91.76H921C920.64,280.34,921.36,280.45,921.64,279.58Z"/><path id="_路径_73" data-name=" 路径 73" class="cls-1" d="M952.82,264.26h-1.37c-.45,0,1.1-1.19,1.82-.87S953.09,264.26,952.82,264.26Z"/></g><g id="重"><path id="_路径_74" data-name=" 路径 74" class="cls-1" d="M1713.18,381.89c-2,4.89-2.63,10.11-4.09,15.21a80.76,80.76,0,0,1-7.64,8.8c-7,5.21-14.18,1.63-21.09,0a43,43,0,0,0-27.63,0c-2.91,1.08-3.09,1.63,0,3.15,5.82,3.69,11.72,7.17,17.72,10.53a34.45,34.45,0,0,0,15.28,5,11,11,0,0,1,5.18,1.63,10.78,10.78,0,0,1,3.09,2.61,92.38,92.38,0,0,1,2.91,21.18,10.49,10.49,0,0,1-6.36,9.34,18.07,18.07,0,0,1-14,1.63,96.54,96.54,0,0,0-21.64-4,64.15,64.15,0,0,0-33.09,5.32c-2.27,1.2-1.82,1.85,0,3.15s4.73,2.61,7,4.13,1.36,1.52,2.45,1.52h.91c1.09,0,1.55,1.52,2.64,1.52a32.31,32.31,0,0,0,8.27,6,12.25,12.25,0,0,1,7,10.54,81.45,81.45,0,0,1,0,20,7.76,7.76,0,0,1-1.82,2.18,24.57,24.57,0,0,1-12.82,1.41,65.25,65.25,0,0,1-25.18-5.65,157.31,157.31,0,0,0-25.18-8,82.18,82.18,0,0,1-7.82-3.36,97.53,97.53,0,0,1-10.18-8.8h0c-1.64-2.39-4.54-3.8-6.36-6.08l-9.91-8.37c-1.82-.87-2.91-2.71-4.73-3.47a61.55,61.55,0,0,1-5.45-4.89c-1.37-1.41-2.91-3.37-1.64-5.32a5.13,5.13,0,0,1,5.82-3.15,55.08,55.08,0,0,1,10.54,4.78,333.19,333.19,0,0,0,38.91,15.2c4.73,1.52,9.28,3.8,14.18,5.32a12.63,12.63,0,0,0,8.28.76,10.24,10.24,0,0,0-4-3.36,119.24,119.24,0,0,0-15.28-8.26c-9.18-4.56-19.09-7.28-28.09-12.49L1548,445.11a55.33,55.33,0,0,1-9.45-6.52,7.34,7.34,0,0,1-2.46-4.78,14.3,14.3,0,0,0-4.27-9.45c0-1.08-1.55-1.41-2-2.28a3.68,3.68,0,0,1,0-4.45,3.74,3.74,0,0,1,4.73-1.63,134.38,134.38,0,0,1,26.27,10.21,104.72,104.72,0,0,1,15.27,7.82c2.64,1.52,4.73,0,4.91-2.39s1.36-4,4.27-3.15a10.59,10.59,0,0,0,2.64,0c2,0,4.91,1.52,5.82-1.09a8.73,8.73,0,0,0-4.91-9.12,112.45,112.45,0,0,0-16.91-2.28l-17.09-1.52c-2.27,0-2.46-.87-1.55-2.72a15.16,15.16,0,0,1,12.37-9c1.81,0,4,0,5.18-2.17s0-2.39-.91-2.94a28,28,0,0,0-13.73-1.19c-1.09,0-1.18,1.09-1.54,1.85s0,3.15-.91,4.88a14.88,14.88,0,0,1-3.09,3.48l-4.55,2.39a7.43,7.43,0,0,1-10.18-2.83,10.46,10.46,0,0,1-.64-1.52,21.49,21.49,0,0,1,0-13.9,7,7,0,0,1,4.73-4.24,11.07,11.07,0,0,0,4.27-2.28c2.46-2.6,1.18-5.54,0-8.25a15.91,15.91,0,0,1,0-6.52c0-2.93,6.55-4.45,9.28-2.39a10,10,0,0,1,2.9,2.94,2.84,2.84,0,0,0,3.82,1.52,3.11,3.11,0,0,0,1.09-.76,6.07,6.07,0,0,0,2.64-7.17c-2.27-5.54-1.09-7.61,4.73-8.26a32,32,0,0,1,7.82,0,5,5,0,0,1,4.72,4.89,2.64,2.64,0,0,0,0,1.19c1.82,2.18,2,0,2.64-.86a6.82,6.82,0,0,1,9-3.59,5.52,5.52,0,0,1,1.09.54,32.24,32.24,0,0,0,11.09,2,9.18,9.18,0,0,1,7,4.24,23,23,0,0,1,1.64,8.58c0,2.71,1.54,3,3.54,2.93h18.46a205.59,205.59,0,0,0,22.09-1.52c6.73-.87,13.45-2,20.09-3.48a10.55,10.55,0,0,0,5.64-1.08c1.81-1.09,5.45,0,6.72-3.48s5.46-2.61,7.46-1.19,4.27,1.63,6.27,2.93a23.33,23.33,0,0,1,4.45,3.8,44.36,44.36,0,0,0,5.82,8.25C1711.27,380.48,1713.18,380.81,1713.18,381.89Z"/><path id="_路径_75" data-name=" 路径 75" class="cls-1" d="M1497.27,532.55a151.65,151.65,0,0,0-12.54,18.79c-5.46,8.69-10.64,17.7-16,26.5l-3.64,6.3a17.91,17.91,0,0,1-16.64,8.36,43.24,43.24,0,0,1-17.36-2.93,6.28,6.28,0,0,1-2.09-1.85,14.6,14.6,0,0,1-3.64-8.8,110.68,110.68,0,0,0-3.09-18.24c-1.09-4.13-1.54-8.26-2.45-12.39s1.09-4.77,1.82-7.06a96.1,96.1,0,0,0,3.09-20.85,42.92,42.92,0,0,0-1.09-15.21c0-1.95,1.36-1.95,2-3s2.27,0,3.18,1.63a88.57,88.57,0,0,1,8.36,15.21c1.64,4.78,2.91,9.56,4.55,14.34a94.48,94.48,0,0,1,4.45,13.14c0,1.84,2.91,2.17,4.55,0s4-4.56,5.82-6.84,1.63-1.85,2-3.05l2-2.71c0-.87,1.54-1.41,1.54-2.39l1.82-2.28c0-1.09,1.64-1.63,2-2.93l2.91-3.7a19.1,19.1,0,0,1,3.36-4l4.55-5.21c2.27-1.85,2.27-1.85,1.09-3L1454,498.22c-2.45-1.19-5-2.28-7.45-3.69a25.69,25.69,0,0,0-13.55-3.37c-4.27,0-5.36-.87-6.36-5a178.54,178.54,0,0,1-6.37-33.24c0-2.39.73-3.37,2.64-3.69a70.86,70.86,0,0,1,15.27,0,35.32,35.32,0,0,1,6.82,0,15.67,15.67,0,0,1,3.82,1.19,21.86,21.86,0,0,1,4,3.37,26.19,26.19,0,0,0,5.36,4.56c1.09,0,1.37,1.52,2.64,1.52l17.27,10.54c1.64.87,2.64,2.6,4.27,3.15l10.37,8.58c1.82.87,2.91,2.71,4.72,3.47a10.74,10.74,0,0,0,12.82,0,13,13,0,0,1,11.09-1.84,5.36,5.36,0,0,0,4.09,0,73.66,73.66,0,0,1-8.54-16.95,14.14,14.14,0,0,1,0-8.25,5.73,5.73,0,0,1,6.45-5,13.29,13.29,0,0,1,1.91.54c2.09,0,4.28,1.85,6.37,2.72a28.8,28.8,0,0,1,4.91,4.13,6.49,6.49,0,0,0,1.18,4.78,90.73,90.73,0,0,1,8.09,13.68,49.74,49.74,0,0,0,7,8.69,8.62,8.62,0,0,1,2.27,6.52c0,2.17,1.09,4.45,0,6.52a9.8,9.8,0,0,1-2.64,3,22,22,0,0,1-10.63,0,18.35,18.35,0,0,0-4.91,0,2,2,0,0,0-2,1.84c0,1.09,0,1.52,1.54,2,8.37,3.69,16.19,8.58,24.28,12.81a12.73,12.73,0,0,1,7.63,15.21,13.21,13.21,0,0,0,1.64,8.26c1.82,3.36,1.36,4.45-1.82,6.4a57.64,57.64,0,0,1-6.82,3.48,8.86,8.86,0,0,1-8.72-2,14,14,0,0,1-4.55-4.77,21.11,21.11,0,0,0-9.64-7.06,182.4,182.4,0,0,1-25.63-15.21,7.25,7.25,0,0,0-9.91,0A21.47,21.47,0,0,0,1497.27,532.55Z"/><path id="_路径_76" data-name=" 路径 76" class="cls-1" d="M1515,418.82c-7.36,4-15.27,5.76-23,9.78-2.27-1.2-3.82-3.48-6.09-4.56l-1.36-1.09a15.14,15.14,0,0,1-3.55-3l-4-3c-5.64-5.21-3.64-9.89,2.27-13.25a99.7,99.7,0,0,1,19.37-5.22,33.38,33.38,0,0,1,13.45-1.52,5.24,5.24,0,0,1,4.91,3.81,24.47,24.47,0,0,1,0,16.5A7.65,7.65,0,0,1,1515,418.82Z"/><path id="_路径_77" data-name=" 路径 77" class="cls-1" d="M1565.27,487.25l10.18,8.8A37.14,37.14,0,0,1,1565.27,487.25Z"/><path id="_路径_78" data-name=" 路径 78" class="cls-1" d="M1701.18,405.79l7.64-8.8A29.81,29.81,0,0,1,1701.18,405.79Z"/><path id="_路径_79" data-name=" 路径 79" class="cls-1" d="M1558.45,480.74a33.39,33.39,0,0,1,6.37,6.08C1562.73,484.65,1560.73,483.45,1558.45,480.74Z"/><path id="_路径_80" data-name=" 路径 80" class="cls-1" d="M1485.82,423.93c2.63.76,4,3.15,6.09,4.56C1489.36,427.73,1487.82,425.45,1485.82,423.93Z"/><path id="_路径_81" data-name=" 路径 81" class="cls-1" d="M1497.27,532.55a13.82,13.82,0,0,1,4.55-5.54Z"/><path id="_路径_82" data-name=" 路径 82" class="cls-1" d="M1535.36,461.51l-4.91-4.13A9.08,9.08,0,0,1,1535.36,461.51Z"/><path id="_路径_83" data-name=" 路径 83" class="cls-1" d="M1496,485.3a16.51,16.51,0,0,1-4.73-3.48C1493.27,482.36,1494.55,484.1,1496,485.3Z"/><path id="_路径_84" data-name=" 路径 84" class="cls-1" d="M1543.82,468.79a16.48,16.48,0,0,1,4.73,3.47C1546.55,471.83,1545.45,470,1543.82,468.79Z"/><path id="_路径_85" data-name=" 路径 85" class="cls-1" d="M1705,371l-4.45-3.8A7.66,7.66,0,0,1,1705,371Z"/><path id="_路径_86" data-name=" 路径 86" class="cls-1" d="M1608.45,364.3l-4-3.48A5.82,5.82,0,0,1,1608.45,364.3Z"/><path id="_路径_87" data-name=" 路径 87" class="cls-1" d="M1610.27,478.56a8.24,8.24,0,0,1,4,3.37Z"/><path id="_路径_88" data-name=" 路径 88" class="cls-1" d="M1480.91,473.24a21.82,21.82,0,0,1-4.27-3.15C1478.55,470.53,1479.55,472.15,1480.91,473.24Z"/><path id="_路径_89" data-name=" 路径 89" class="cls-1" d="M1451.55,453.26l-4-3.37A6.72,6.72,0,0,1,1451.55,453.26Z"/><path id="_路径_90" data-name=" 路径 90" class="cls-1" d="M1471.91,518.64l-3.36,4A7.11,7.11,0,0,1,1471.91,518.64Z"/><path id="_路径_91" data-name=" 路径 91" class="cls-1" d="M1477.55,510.28c1.54.87,1.54,1.19-1.1,3C1477,512.45,1478.82,511.8,1477.55,510.28Z"/><path id="_路径_92" data-name=" 路径 92" class="cls-1" d="M1480.82,420l3.54,3A5.19,5.19,0,0,1,1480.82,420Z"/><path id="_路径_93" data-name=" 路径 93" class="cls-1" d="M1546.55,407.2l3.09-3.47A5.71,5.71,0,0,1,1546.55,407.2Z"/><path id="_路径_94" data-name=" 路径 94" class="cls-1" d="M1693.36,428.27l-3.09-2.6A3.76,3.76,0,0,1,1693.36,428.27Z"/><path id="_路径_95" data-name=" 路径 95" class="cls-1" d="M1580.27,361.15s0,3.47-2.63.87C1579,363.1,1579.64,361.91,1580.27,361.15Z"/><path id="_路径_96" data-name=" 路径 96" class="cls-1" d="M1551.73,505l2.63-3A4.33,4.33,0,0,1,1551.73,505Z"/><path id="_路径_97" data-name=" 路径 97" class="cls-1" d="M1428.45,503.76c-.9,0-1.54-2.17-3.18-1.63C1427.27,500.94,1427.91,502.46,1428.45,503.76Z"/><path id="_路径_98" data-name=" 路径 98" class="cls-1" d="M1458.18,536.78a7,7,0,0,1-2,3C1456.27,538.84,1457.45,537.76,1458.18,536.78Z"/><path id="_路径_99" data-name=" 路径 99" class="cls-1" d="M1465.73,526.35a6.79,6.79,0,0,1-2,2.94C1463.73,527.87,1464.91,527.22,1465.73,526.35Z"/><path id="_路径_100" data-name=" 路径 100" class="cls-1" d="M1713.18,381.89c0-.86-1.82-1.19-2-2.39S1713.18,380.48,1713.18,381.89Z"/><path id="_路径_101" data-name=" 路径 101" class="cls-1" d="M1630.09,471a5.5,5.5,0,0,1-2.45-1.52C1628.73,469.22,1629.36,470.31,1630.09,471Z"/><path id="_路径_102" data-name=" 路径 102" class="cls-1" d="M1633.64,473c-1.09,0-1.82-.87-2.64-1.52S1632.82,472.48,1633.64,473Z"/><path id="_路径_103" data-name=" 路径 103" class="cls-1" d="M1459.45,459.34a5.22,5.22,0,0,1-2.63-1.52C1458.09,457.82,1458.64,458.9,1459.45,459.34Z"/><path id="_路径_104" data-name=" 路径 104" class="cls-1" d="M1461.91,531.46a4.44,4.44,0,0,1-1.55,2.39C1460.36,532.87,1461.27,532.44,1461.91,531.46Z"/><path id="_路径_105" data-name=" 路径 105" class="cls-1" d="M1515,418.82l1.82-2.17A2.26,2.26,0,0,1,1515,418.82Z"/><path id="_路径_106" data-name=" 路径 106" class="cls-1" d="M1428.82,587.61l2.09,1.85A2.4,2.4,0,0,1,1428.82,587.61Z"/><path id="_路径_107" data-name=" 路径 107" class="cls-1" d="M1527.18,422.41a4.94,4.94,0,0,1,2,2.28S1527.27,423.71,1527.18,422.41Z"/><path id="_路径_108" data-name=" 路径 108" class="cls-1" d="M1646.27,511.69l1.82-2.17A2.27,2.27,0,0,1,1646.27,511.69Z"/><path id="_路径_109" data-name=" 路径 109" class="cls-1" d="M1637,426.75c.73.87,3.09,2,2.27,3.37s-2.72,0-4.27,0h-2a2.38,2.38,0,0,1-2.27-2c-.18-1.08,1.09-2,2-2.71s2,0,2.91.76Z"/></g></g></g></g></g></g></svg>