<svg xmlns="http://www.w3.org/2000/svg" xmlns:xlink="http://www.w3.org/1999/xlink" viewBox="0 0 309.08 384.3"><defs><style>.cls-1{fill:url(#未命名的渐变_9);}.cls-2{fill:url(#未命名的渐变_7);}.cls-3{fill:url(#未命名的渐变_8);}.cls-4{isolation:isolate;}.cls-5{fill:url(#未命名的渐变_9-2);}.cls-6{fill:#fff;}</style><linearGradient id="未命名的渐变_9" x1="-238.84" y1="-694.99" x2="3" y2="-901.71" gradientTransform="matrix(0.97, -0.23, 0.23, 0.97, 465.99, 928.19)" gradientUnits="userSpaceOnUse"><stop offset="0" stop-color="#611d66"/><stop offset="1" stop-color="#43175e"/></linearGradient><linearGradient id="未命名的渐变_7" x1="-181.91" y1="-982.89" x2="-114.44" y2="-730.31" gradientTransform="matrix(0.97, -0.23, 0.23, 0.97, 465.99, 928.19)" gradientUnits="userSpaceOnUse"><stop offset="0.09" stop-color="#d1086a"/><stop offset="0.92" stop-color="#940094"/></linearGradient><linearGradient id="未命名的渐变_8" x1="-177.29" y1="-854.57" x2="-33.03" y2="-584.49" gradientTransform="matrix(0.97, -0.23, 0.23, 0.97, 465.99, 928.19)" gradientUnits="userSpaceOnUse"><stop offset="0.24" stop-color="#646abf"/><stop offset="0.62" stop-color="#412d84"/></linearGradient><linearGradient id="未命名的渐变_9-2" x1="-261.69" y1="-720.79" x2="-19.85" y2="-927.51" xlink:href="#未命名的渐变_9"/></defs><title>图标2.0</title><g id="图层_2" data-name="图层 2"><g id="图层_1-2" data-name="图层 1"><path class="cls-1" d="M231.49,37.45a205.44,205.44,0,0,1-8.1,98.1c-26,78.1-93.9,131.5-171.1,143.9"/><path class="cls-2" d="M53.49,280.45a183.19,183.19,0,0,1,2.1-108.7c25.2-75.9,96.2-126,176.7-133.3l.4-.6c-32.6-16.9-72.2-22.5-111.8-12.9-83.6,20.2-136,100.4-117,179.1a140.15,140.15,0,0,0,49.6,77.1l.6-.8Z"/><path class="cls-3" d="M231.09,37l-.4.6h.4a205,205,0,0,1-8,98c-26,77.8-93.6,131.3-170.6,143.8l-.6.8,4.3,74c4.1,39.4,24.3,46,83.7-15.6l20.9-21.4c12.3-6.7,12.7-3.3,27.4-8.2,83.6-20.2,136-100.4,117-179.1C295.09,88.55,267.29,55.75,231.09,37Z"/><image class="cls-4" width="259" height="315" transform="translate(5.99)" xlink:href="../801F34FC.png"/><path class="cls-5" d="M231.79,38.45a205.44,205.44,0,0,1-8.1,98.1c-26,78.1-93.9,131.5-171.1,143.9a182.4,182.4,0,0,1,2.1-108.7c25.3-76,96.4-126.1,177.1-133.3"/><path class="cls-6" d="M218.39,180.45c-5.3.6-11.1,1.3-17,2-13.1,1.5-26.2,2.6-39.3,4.4-10.8,1.4-21.6,2.7-32.4,3.7-4.8.5-9.7,1.3-13,5.1-4,4.6-4.1,11.8-.3,17.1,3.2,4.5,8.2,5.7,13.6,5,14.8-2,29.6-3.9,44.3-6.4,1.1-.2,2.5-1.3,3.3,0s-.5,2.4-1.1,3.5c-4,7.4-9.3,13.9-14.7,20.4-4.3,5.1-8,10.6-12.5,15.6a19,19,0,0,0-4.5,9.2c-.9,5.2,1.3,8.5,5.8,10.9,6.5,3.4,15.7.1,20-4.5,4.9-5.2,10.1-10,14.4-15.7,5.9-8,13-14.9,19.2-22.7a51.81,51.81,0,0,1,4.7-5.8c6.5-6.1,11.8-13.1,17.9-19.6a19.47,19.47,0,0,0,3.4-5.5C234.39,187.05,226.69,180.75,218.39,180.45Z"/><path class="cls-6" d="M232.89,128.75c-9.5.9-19.1,1.8-28.6,2.9l-51.9,5.7c-11,1.2-22.1,2.4-33.1,3.8-8.1,1-16.3,1.4-24.3,3.2-2.1.5-3.9,1.1-5.2,3-4.9,7.8-4.1,13.7,2.8,20a6.29,6.29,0,0,0,5.7,1.7c10.1-1.7,20.3-2.4,30.5-3.6,25.2-3,50.4-5.5,75.6-8.2,11.4-1.2,22.7-2.2,34.1-3.7,7.7-1,9.1-2.9,9.1-10.6a2.49,2.49,0,0,0,.1-.8C246.69,131,244.09,127.75,232.89,128.75Z"/><path class="cls-6" d="M254.59,75.05c-3,.2-6.1.4-9.1.7-12,1.2-24.1,2.3-36,3.6-15.2,1.7-30.4,3.8-45.7,5.6-17.6,2.2-35.2,3.9-52.8,6.3s-35.4,4.4-53,7.5c-6.5,1.1-7.7,1.9-8.9,8.2a28.45,28.45,0,0,0-.4,4.1h.2v2.6c1,9.2,4.3,12.5,12,11.2,16.2-2.7,32.4-5.4,48.7-7.4,11.9-1.4,23.8-2.9,35.7-4.4,14.4-1.7,28.7-3.4,43.1-5,9.5-1.1,19-2,28.6-3,12.9-1.4,25.7-2.7,38.6-4.3,5.3-.7,7.7-3.5,7.6-8.7a30.39,30.39,0,0,0-4.1-14.7A4.61,4.61,0,0,0,254.59,75.05Z"/></g></g></svg>