<svg xmlns="http://www.w3.org/2000/svg" xmlns:xlink="http://www.w3.org/1999/xlink" viewBox="0 0 1080 1882"><defs><style>.cls-1{fill:#fff;}.cls-2{fill:url(#未命名的渐变_71);}.cls-3{fill:url(#未命名的渐变_71-2);}.cls-4{fill:url(#未命名的渐变_71-3);}.cls-5{fill:url(#未命名的渐变_71-4);}.cls-6{fill:url(#未命名的渐变_71-5);}</style><linearGradient id="未命名的渐变_71" x1="237.2" y1="391.18" x2="237.2" y2="391.18" gradientUnits="userSpaceOnUse"><stop offset="0" stop-color="#d1086a"/><stop offset="0.64" stop-color="#940094"/></linearGradient><linearGradient id="未命名的渐变_71-2" x1="340.67" y1="399.79" x2="341.53" y2="399.79" xlink:href="#未命名的渐变_71"/><linearGradient id="未命名的渐变_71-3" x1="481.81" y1="831.18" x2="622.14" y2="831.18" xlink:href="#未命名的渐变_71"/><linearGradient id="未命名的渐变_71-4" x1="450.05" y1="738.69" x2="641.9" y2="738.69" xlink:href="#未命名的渐变_71"/><linearGradient id="未命名的渐变_71-5" x1="404.54" y1="680.45" x2="660.15" y2="680.45" xlink:href="#未命名的渐变_71"/></defs><title>小一点的启动图</title><g id="图层_2" data-name="图层 2"><g id="图层_1-2" data-name="图层 1"><rect class="cls-1" width="1080" height="1882"/><line class="cls-2" x1="237.2" y1="391.19" x2="237.2" y2="391.18"/><polygon class="cls-3" points="341.52 399.43 340.67 400.14 341.53 399.43 341.52 399.43"/><path class="cls-4" d="M606.73,776.59c-6.3.72-13.26,1.56-20.23,2.3-15.6,1.68-31.25,3-46.8,5Q520.4,786.44,501,788.2c-5.79.53-11.61,1.52-15.54,6-4.78,5.42-4.92,14-.39,20.41,3.82,5.4,9.71,6.92,16.21,6,17.61-2.36,35.26-4.52,52.79-7.4,1.29-.22,3-1.49,3.94,0s-.61,2.83-1.32,4.16c-4.75,8.85-11.15,16.55-17.56,24.24-5.1,6.11-9.61,12.66-15,18.56a22.08,22.08,0,0,0-5.37,10.92c-1.13,6.16,1.48,10.14,6.91,13,7.7,4,18.72.19,23.87-5.25,5.83-6.14,12.15-11.87,17.19-18.68,7-9.49,15.54-17.75,23-26.91,1.86-2.3,3.46-4.85,5.61-6.84,7.75-7.21,14.15-15.61,21.38-23.26a21.39,21.39,0,0,0,4-6.53C625.75,784.5,616.6,776.92,606.73,776.59Z"/><path class="cls-5" d="M624.27,715c-11.36,1.06-22.72,2.08-34.07,3.31-20.62,2.23-41.25,4.37-61.87,6.58-13.14,1.4-26.3,2.7-39.41,4.33-9.65,1.2-19.4,1.57-28.93,3.68-2.46.54-4.7,1.33-6.16,3.6-5.92,9.26-4.93,16.27,3.26,23.82a7.57,7.57,0,0,0,6.74,2.1c12-1.94,24.21-2.76,36.32-4.17,30-3.5,60.07-6.38,90.12-9.48,13.54-1.4,27.11-2.55,40.62-4.2,9.16-1.12,10.85-3.42,10.9-12.65a4.21,4.21,0,0,0,.11-1C640.67,717.68,637.64,713.79,624.27,715Z"/><path class="cls-6" d="M650.35,651.05c-3.62.26-7.26.41-10.87.75-14.33,1.34-28.68,2.58-43,4.16-18.17,2-36.3,4.37-54.46,6.49-21,2.44-42,4.53-63,7.25s-42.25,5.09-63.23,8.7c-7.77,1.33-9.13,2.2-10.69,9.74-.33,1.61-.37,3.28-.55,4.93h.2a28.38,28.38,0,0,0,0,3.06c1.11,11,5,14.94,14.19,13.43,19.33-3.18,38.66-6.32,58.13-8.58,14.17-1.64,28.33-3.39,42.5-5q25.7-3,51.4-5.75C582.33,689,593.69,688,605,686.77c15.34-1.6,30.69-3.14,46-5,6.33-.76,9.14-4.09,9.1-10.34a37.37,37.37,0,0,0-4.77-17.57A4.85,4.85,0,0,0,650.35,651.05Z"/></g></g></svg>