<svg xmlns="http://www.w3.org/2000/svg" xmlns:xlink="http://www.w3.org/1999/xlink" viewBox="0 0 255 255"><defs><style>.cls-1{fill:#fff;}.cls-2{fill:url(#未命名的渐变_3);}.cls-3{fill:url(#未命名的渐变_5);}.cls-4{fill:url(#未命名的渐变_6);}.cls-5{isolation:isolate;}.cls-6{fill:url(#未命名的渐变_3-2);}</style><linearGradient id="未命名的渐变_3" x1="-339.9" y1="-526.16" x2="-189.41" y2="-397.52" gradientTransform="matrix(0.97, -0.23, -0.23, -0.97, 282.56, -388.86)" gradientUnits="userSpaceOnUse"><stop offset="0" stop-color="#611d66"/><stop offset="1" stop-color="#43175e"/></linearGradient><linearGradient id="未命名的渐变_5" x1="-304.4" y1="-347.34" x2="-262.59" y2="-503.85" gradientTransform="matrix(0.97, -0.23, -0.23, -0.97, 282.56, -388.86)" gradientUnits="userSpaceOnUse"><stop offset="0.09" stop-color="#d1086a"/><stop offset="0.92" stop-color="#940094"/></linearGradient><linearGradient id="未命名的渐变_6" x1="-301.11" y1="-427.31" x2="-211.57" y2="-594.94" gradientTransform="matrix(0.97, -0.23, -0.23, -0.97, 282.56, -388.86)" gradientUnits="userSpaceOnUse"><stop offset="0.24" stop-color="#646abf"/><stop offset="0.62" stop-color="#412d84"/></linearGradient><linearGradient id="未命名的渐变_3-2" x1="-354.02" y1="-510.21" x2="-203.53" y2="-381.58" xlink:href="#未命名的渐变_3"/></defs><title>带背景图标2.0</title><g id="图层_2" data-name="图层 2"><g id="图层_1-2" data-name="图层 1"><rect class="cls-1" width="255" height="255"/><path class="cls-2" d="M176.4,33.93a126.17,126.17,0,0,1-5.08,60.83C155,143.19,112.51,176.3,64.15,184"/><path class="cls-3" d="M64.9,184.61a112.49,112.49,0,0,1,1.32-67.4C82,70.14,126.48,39.08,176.9,34.55l.25-.37a101.54,101.54,0,0,0-70-8c-52.36,12.53-85.19,62.26-73.29,111A86.84,86.84,0,0,0,64.9,185l.38-.5Z"/><path class="cls-4" d="M176.15,33.62l-.25.38h.25a125.87,125.87,0,0,1-5,60.76C154.85,143,112.51,176.17,64.28,183.92l-.38.5,2.69,45.88c2.57,24.44,15.22,28.53,52.43-9.67l13.09-13.27c7.71-4.15,8-2,17.17-5.08,52.36-12.53,85.18-62.26,73.28-111C216.24,65.62,198.82,45.28,176.15,33.62Z"/><image class="cls-5" width="259" height="315" transform="translate(-368 -833.1)" xlink:href="../801F34FC.png"/><path class="cls-6" d="M176.59,34.55a126.17,126.17,0,0,1-5.08,60.83c-16.28,48.43-58.81,81.54-107.17,89.23a112,112,0,0,1,1.31-67.4C81.5,70.08,126,39,176.59,34.55"/><path class="cls-1" d="M168.19,122.6c-3.32.37-6.95.81-10.65,1.24-8.2.93-16.41,1.61-24.61,2.73-6.77.87-13.53,1.67-20.3,2.29-3,.31-6.07.81-8.14,3.17a8.56,8.56,0,0,0-.19,10.6c2,2.79,5.14,3.53,8.52,3.1,9.27-1.24,18.54-2.42,27.75-4,.69-.12,1.56-.8,2.07,0s-.32,1.49-.69,2.17a79.21,79.21,0,0,1-9.21,12.65c-2.69,3.16-5,6.57-7.83,9.67a11.8,11.8,0,0,0-2.82,5.71c-.56,3.22.82,5.27,3.63,6.76,4.08,2.1,9.84.06,12.53-2.79,3.07-3.23,6.33-6.2,9-9.74,3.7-5,8.14-9.24,12-14.07a32.32,32.32,0,0,1,2.94-3.6c4.07-3.78,7.39-8.12,11.21-12.15a12.07,12.07,0,0,0,2.13-3.41C178.21,126.69,173.39,122.79,168.19,122.6Z"/><path class="cls-1" d="M177.27,90.54c-6,.56-12,1.12-17.91,1.8l-32.51,3.54c-6.89.74-13.84,1.49-20.73,2.35-5.08.62-10.21.87-15.22,2a4.85,4.85,0,0,0-3.26,1.86c-3.07,4.83-2.57,8.49,1.75,12.4a4,4,0,0,0,3.57,1c6.33-1,12.72-1.49,19.11-2.23,15.78-1.86,31.57-3.41,47.35-5.08,7.14-.75,14.22-1.37,21.36-2.3,4.83-.62,5.7-1.8,5.7-6.57a1.39,1.39,0,0,0,.07-.5C185.92,91.91,184.29,89.92,177.27,90.54Z"/><path class="cls-1" d="M190.87,57.25c-1.88.12-3.82.25-5.7.43-7.52.75-15.1,1.43-22.55,2.23-9.52,1.06-19,2.36-28.63,3.48-11,1.36-22.05,2.41-33.07,3.9S78.75,70,67.72,71.94c-4.07.69-4.82,1.18-5.57,5.09a16.68,16.68,0,0,0-.25,2.54H62v1.61c.63,5.71,2.69,7.75,7.52,6.95,10.15-1.68,20.29-3.35,30.5-4.59,7.46-.87,14.91-1.8,22.36-2.73,9-1,18-2.11,27-3.1,5.95-.68,11.9-1.24,17.92-1.86,8.08-.87,16.09-1.67,24.17-2.67,3.32-.43,4.83-2.17,4.76-5.39a18.76,18.76,0,0,0-2.56-9.12A2.9,2.9,0,0,0,190.87,57.25Z"/></g></g></svg>