<svg xmlns="http://www.w3.org/2000/svg" xmlns:xlink="http://www.w3.org/1999/xlink" viewBox="0 0 643.75 1121.89"><defs><style>.cls-1{fill:#333;}.cls-2{fill:url(#未命名的渐变_71);}.cls-3{fill:url(#未命名的渐变_70);}.cls-4{fill:url(#未命名的渐变_73);}.cls-5{fill:#dbdbda;}</style><linearGradient id="未命名的渐变_71" x1="-130.55" y1="152.05" x2="677.41" y2="716.58" gradientUnits="userSpaceOnUse"><stop offset="0" stop-color="#d1086a"/><stop offset="0.64" stop-color="#940094"/></linearGradient><linearGradient id="未命名的渐变_70" x1="326.21" y1="943.76" x2="668.76" y2="1266.41" gradientUnits="userSpaceOnUse"><stop offset="0.23" stop-color="#646abf"/><stop offset="0.73" stop-color="#412d84"/></linearGradient><linearGradient id="未命名的渐变_73" x1="109.66" y1="1001.01" x2="877.73" y2="344.46" gradientUnits="userSpaceOnUse"><stop offset="0" stop-color="#611d66"/><stop offset="1" stop-color="#43175e"/></linearGradient></defs><title>截图用</title><g id="图层_2" data-name="图层 2"><g id="图层_1-2" data-name="图层 1"><rect class="cls-1" width="643.75" height="1121.89"/><path class="cls-2" d="M643.75,0H246C57.88,180.12-37.75,438.56,13.89,699.74c33.33,168.55,123,312.66,247.53,419.24l3.27-4-3,.39c-45.38-186.75-36.59-385.53,37-576C369.39,356.22,490.89,204.28,643.75,91.53Z"/><path class="cls-3" d="M643.75,1121.89V1001.54a1194.28,1194.28,0,0,1-380.92,113l-3.27,4-.42,3.38Z"/><path class="cls-4" d="M298.25,538.67c-73.58,190.47-82.37,389.25-37,576a1194.13,1194.13,0,0,0,382.5-112.61V90.55C490.71,203.33,369.06,355.38,298.25,538.67Z"/><line class="cls-5" x1="102.7" y1="346.14" x2="102.7" y2="346.14"/><path class="cls-5" d="M390.09,277.9c-6.3.72-13.26,1.56-20.22,2.3-15.61,1.68-31.25,3-46.81,5-12.86,1.67-25.75,3.06-38.66,4.26-5.78.54-11.61,1.53-15.53,6-4.79,5.43-4.93,14-.4,20.42,3.82,5.4,9.71,6.91,16.21,6.05,17.62-2.36,35.26-4.52,52.8-7.41,1.29-.21,3-1.49,3.94,0s-.62,2.83-1.33,4.16c-4.75,8.85-11.15,16.55-17.56,24.24-5.1,6.11-9.61,12.66-15,18.56a22,22,0,0,0-5.38,10.92c-1.13,6.16,1.48,10.14,6.91,13,7.7,4,18.72.19,23.87-5.25,5.83-6.14,12.15-11.87,17.19-18.68,7-9.49,15.54-17.75,22.95-26.91,1.86-2.3,3.47-4.85,5.61-6.84,7.76-7.21,14.15-15.61,21.38-23.27a21.18,21.18,0,0,0,4-6.52C409.12,285.81,400,278.23,390.09,277.9Z"/><path class="cls-5" d="M407.63,216.34c-11.36,1.06-22.72,2.08-34.06,3.31-20.62,2.23-41.25,4.37-61.88,6.57-13.14,1.41-26.29,2.71-39.41,4.34-9.64,1.2-19.4,1.57-28.93,3.68-2.46.54-4.7,1.32-6.16,3.6-5.91,9.26-4.93,16.27,3.26,23.82a7.57,7.57,0,0,0,6.74,2.1c12-1.94,24.22-2.77,36.32-4.18,30-3.49,60.08-6.37,90.12-9.47,13.55-1.4,27.12-2.55,40.62-4.2,9.16-1.12,10.86-3.42,10.9-12.65a4.21,4.21,0,0,0,.11-1C424,219,421,215.09,407.63,216.34Z"/><path class="cls-5" d="M433.71,152.36c-3.62.26-7.25.41-10.87.75-14.33,1.34-28.68,2.58-43,4.16-18.18,2-36.31,4.37-54.47,6.49-21,2.44-42.05,4.52-63,7.25s-42.26,5.09-63.24,8.69c-7.77,1.34-9.13,2.21-10.69,9.75-.33,1.61-.37,3.28-.55,4.93h.2c0,1-.08,2.05,0,3.06,1.11,11,5,14.93,14.19,13.43,19.33-3.18,38.66-6.32,58.13-8.58,14.17-1.64,28.33-3.39,42.5-5q25.69-3,51.41-5.75c11.34-1.23,22.7-2.27,34-3.45,15.34-1.61,30.69-3.14,46-5,6.33-.76,9.14-4.09,9.1-10.34a37.48,37.48,0,0,0-4.76-17.57A4.86,4.86,0,0,0,433.71,152.36Z"/></g></g></svg>