<svg xmlns="http://www.w3.org/2000/svg" xmlns:xlink="http://www.w3.org/1999/xlink" viewBox="0 0 1080 2340"><defs><style>.cls-1{fill:#333;}.cls-2{fill:url(#未命名的渐变_5);}.cls-3{fill:url(#未命名的渐变_7);}.cls-4{fill:url(#未命名的渐变_7-2);}.cls-5{fill:url(#未命名的渐变_14);}.cls-6{fill:#dbdbda;}</style><linearGradient id="未命名的渐变_5" x1="165.94" y1="-234.3" x2="885.59" y2="2459.63" gradientUnits="userSpaceOnUse"><stop offset="0.09" stop-color="#d1086a"/><stop offset="0.92" stop-color="#940094"/></linearGradient><linearGradient id="未命名的渐变_7" x1="61.34" y1="2369.52" x2="1317.3" y2="1295.95" gradientUnits="userSpaceOnUse"><stop offset="0" stop-color="#611d66"/><stop offset="1" stop-color="#43175e"/></linearGradient><linearGradient id="未命名的渐变_7-2" x1="-210.16" y1="2176.43" x2="1487.58" y2="725.24" xlink:href="#未命名的渐变_7"/><linearGradient id="未命名的渐变_14" x1="690.32" y1="2120.9" x2="1161.22" y2="2736.71" gradientUnits="userSpaceOnUse"><stop offset="0" stop-color="#646abf"/><stop offset="0.92" stop-color="#412d84"/></linearGradient></defs><title>炫酷启动图2.0</title><g id="图层_2" data-name="图层 2"><g id="图层_1-2" data-name="图层 1"><rect class="cls-1" width="1080" height="2340"/><path class="cls-2" d="M633.13,0C385.24,77.85,169.94,212.3,0,383.79V2331.92q4.28,4,8.59,8.08H76.36a1745.78,1745.78,0,0,1,37.88-969.46C275.06,886.14,631.61,512,1080,296.74V0Z"/><path class="cls-3" d="M125.08,2340H336.33c272-79.31,525.66-213.16,743.67-392.84V1050.43Z"/><path class="cls-4" d="M89.34,1377.21C-14.18,1688.67-28.16,2022.31,49.67,2340H375.82c257.51-82.53,497.29-214.33,704.18-387.82V292.08C620,505.29,253.52,884,89.34,1377.21Z"/><path class="cls-5" d="M1080,1944.27A2087.36,2087.36,0,0,1,333.12,2340H1080Z"/><path class="cls-6" d="M606.07,1035.25c-6.3.72-13.26,1.56-20.22,2.31-15.61,1.67-31.25,3-46.81,5-12.86,1.68-25.75,3.07-38.66,4.27-5.78.53-11.61,1.52-15.53,6-4.79,5.42-4.93,14-.4,20.41,3.82,5.4,9.72,6.92,16.21,6,17.62-2.36,35.26-4.52,52.8-7.4,1.29-.21,3-1.49,3.94,0s-.61,2.83-1.33,4.16c-4.75,8.85-11.15,16.56-17.56,24.24-5.1,6.11-9.61,12.66-15,18.56a22,22,0,0,0-5.38,10.92c-1.13,6.17,1.48,10.14,6.91,13,7.7,4,18.72.19,23.87-5.25,5.83-6.14,12.15-11.86,17.19-18.68,7-9.49,15.54-17.75,22.95-26.91,1.86-2.29,3.47-4.85,5.61-6.84,7.76-7.21,14.15-15.6,21.38-23.26a21.23,21.23,0,0,0,4-6.53C625.1,1043.16,615.94,1035.58,606.07,1035.25Z"/><path class="cls-6" d="M623.61,973.7c-11.36,1.06-22.72,2.07-34.06,3.3-20.62,2.24-41.25,4.37-61.88,6.58-13.14,1.4-26.29,2.71-39.41,4.34-9.64,1.19-19.4,1.57-28.93,3.67-2.46.54-4.7,1.33-6.16,3.6-5.91,9.27-4.93,16.27,3.26,23.82a7.57,7.57,0,0,0,6.74,2.1c12-1.94,24.22-2.76,36.32-4.17,30-3.5,60.08-6.37,90.13-9.48,13.54-1.4,27.11-2.55,40.61-4.2,9.16-1.11,10.86-3.42,10.9-12.64a4.31,4.31,0,0,0,.11-1C640,976.34,637,972.45,623.61,973.7Z"/><path class="cls-6" d="M649.69,909.71c-3.62.27-7.25.41-10.87.75-14.33,1.34-28.68,2.58-43,4.16-18.18,2-36.31,4.37-54.47,6.49-21,2.44-42.05,4.53-63,7.25s-42.26,5.09-63.23,8.7c-7.78,1.34-9.14,2.2-10.7,9.74-.33,1.62-.37,3.29-.55,4.93h.2c0,1-.08,2,0,3.06,1.11,11,5,14.94,14.2,13.43,19.32-3.18,38.65-6.32,58.12-8.57,14.17-1.64,28.33-3.4,42.5-5q25.7-2.94,51.41-5.75c11.34-1.23,22.7-2.26,34-3.45,15.34-1.6,30.7-3.14,46-5,6.33-.76,9.14-4.1,9.1-10.35a37.51,37.51,0,0,0-4.76-17.57A4.86,4.86,0,0,0,649.69,909.71Z"/></g></g></svg>