<svg xmlns="http://www.w3.org/2000/svg" xmlns:xlink="http://www.w3.org/1999/xlink" viewBox="0 0 643.75 1121.89"><defs><style>.cls-1{fill:#333;}.cls-2{fill:url(#未命名的渐变_71);}.cls-3{fill:url(#未命名的渐变_70);}.cls-4{fill:url(#未命名的渐变_73);}.cls-5{fill:#dbdbda;}</style><linearGradient id="未命名的渐变_71" x1="-130.55" y1="152.05" x2="677.41" y2="716.58" gradientUnits="userSpaceOnUse"><stop offset="0" stop-color="#d1086a"/><stop offset="0.64" stop-color="#940094"/></linearGradient><linearGradient id="未命名的渐变_70" x1="326.21" y1="943.76" x2="668.76" y2="1266.41" gradientUnits="userSpaceOnUse"><stop offset="0.23" stop-color="#646abf"/><stop offset="0.73" stop-color="#412d84"/></linearGradient><linearGradient id="未命名的渐变_73" x1="109.66" y1="1001.01" x2="877.73" y2="344.46" gradientUnits="userSpaceOnUse"><stop offset="0" stop-color="#611d66"/><stop offset="1" stop-color="#43175e"/></linearGradient></defs><title>资源 1</title><g id="图层_2" data-name="图层 2"><g id="图层_1-2" data-name="图层 1"><rect class="cls-1" width="643.75" height="1121.89"/><path class="cls-2" d="M643.75,0H246C57.88,180.12-37.75,438.56,13.89,699.74c33.33,168.55,123,312.66,247.53,419.24l3.27-4-3,.39c-45.38-186.75-36.59-385.53,37-576C369.39,356.22,490.89,204.28,643.75,91.53Z"/><path class="cls-3" d="M643.75,1121.89V1001.54a1194.28,1194.28,0,0,1-380.92,113l-3.27,4-.42,3.38Z"/><path class="cls-4" d="M298.25,538.67c-73.58,190.47-82.37,389.25-37,576a1194.13,1194.13,0,0,0,382.5-112.61V90.55C490.71,203.33,369.06,355.38,298.25,538.67Z"/><line class="cls-5" x1="88.74" y1="528.57" x2="88.74" y2="528.57"/><path class="cls-5" d="M376.12,460.33c-6.3.72-13.25,1.56-20.22,2.3-15.6,1.68-31.25,3-46.8,5q-19.31,2.5-38.67,4.27c-5.78.53-11.6,1.52-15.53,6-4.78,5.42-4.93,14-.39,20.41,3.81,5.4,9.71,6.92,16.21,6.05,17.61-2.36,35.25-4.52,52.79-7.4,1.29-.22,3-1.49,3.94,0s-.61,2.83-1.33,4.16c-4.75,8.85-11.14,16.56-17.56,24.24-5.1,6.11-9.61,12.66-15,18.56a22,22,0,0,0-5.37,10.92c-1.14,6.16,1.47,10.14,6.91,13,7.69,4,18.71.19,23.87-5.25,5.82-6.14,12.14-11.87,17.19-18.68,7-9.49,15.53-17.75,23-26.91,1.85-2.3,3.46-4.85,5.61-6.84,7.75-7.21,14.14-15.6,21.37-23.26a21.23,21.23,0,0,0,4-6.53C395.15,468.24,386,460.66,376.12,460.33Z"/><path class="cls-5" d="M393.67,398.77c-11.36,1.06-22.73,2.08-34.07,3.31-20.62,2.23-41.25,4.37-61.87,6.58-13.14,1.4-26.3,2.71-39.41,4.33-9.65,1.2-19.41,1.58-28.94,3.68-2.45.54-4.7,1.33-6.15,3.6-5.92,9.27-4.94,16.27,3.25,23.82a7.57,7.57,0,0,0,6.74,2.1c12-1.94,24.22-2.76,36.32-4.17,30-3.5,60.08-6.37,90.13-9.48,13.54-1.4,27.11-2.55,40.62-4.2,9.15-1.12,10.85-3.42,10.9-12.65a4.28,4.28,0,0,0,.1-1C410.06,401.42,407,397.53,393.67,398.77Z"/><path class="cls-5" d="M419.74,334.79c-3.62.26-7.25.41-10.86.75-14.34,1.34-28.68,2.58-43,4.16-18.17,2-36.31,4.37-54.47,6.49-21,2.44-42.05,4.53-63,7.25s-42.25,5.09-63.23,8.7c-7.78,1.33-9.14,2.2-10.69,9.74a47.34,47.34,0,0,0-.55,4.93h.2c0,1-.09,2.05,0,3.06,1.12,11,5,14.94,14.2,13.43,19.33-3.18,38.66-6.32,58.12-8.57,14.18-1.65,28.33-3.4,42.51-5q25.69-3,51.4-5.75c11.34-1.23,22.71-2.26,34.06-3.45,15.34-1.6,30.69-3.14,46-5,6.33-.75,9.14-4.09,9.1-10.34a37.39,37.39,0,0,0-4.76-17.57A4.86,4.86,0,0,0,419.74,334.79Z"/></g></g></svg>