  0
SECTION
  2
HEADER
  9
$ACADVER
  1
AC1024
  9
$ACADMAINTVER
 70
     6
  9
$DWGCODEPAGE
  3
UNDEFINED
  9
$INSBASE
 10
0.0
 20
0.0
 30
0.0
  9
$EXTMIN
 10
1.000000000000000E+20
 20
1.000000000000000E+20
 30
1.000000000000000E+20
  9
$EXTMAX
 10
-1.000000000000000E+20
 20
-1.000000000000000E+20
 30
-1.000000000000000E+20
  9
$LIMMIN
 10
0.0
 20
0.0
  9
$LIMMAX
 10
12.0
 20
9.0
  9
$ORTHOMODE
 70
     0
  9
$REGENMODE
 70
     1
  9
$FILLMODE
 70
     1
  9
$QTEXTMODE
 70
     0
  9
$MIRRTEXT
 70
     1
  9
$LTSCALE
 40
1.0
  9
$ATTMODE
 70
     1
  9
$TEXTSIZE
 40
0.2
  9
$TRACEWID
 40
0.05
  9
$TEXTSTYLE
  7
Standard
  9
$CLAYER
  8
0
  9
$CELTYPE
  6
ByLayer
  9
$CECOLOR
 62
   256
  9
$CELTSCALE
 40
1.0
  9
$DISPSILH
 70
     0
  9
$DIMSCALE
 40
1.0
  9
$DIMASZ
 40
0.18
  9
$DIMEXO
 40
0.0625
  9
$DIMDLI
 40
0.38
  9
$DIMRND
 40
0.0
  9
$DIMDLE
 40
0.0
  9
$DIMEXE
 40
0.18
  9
$DIMTP
 40
0.0
  9
$DIMTM
 40
0.0
  9
$DIMTXT
 40
0.18
  9
$DIMCEN
 40
0.09
  9
$DIMTSZ
 40
0.0
  9
$DIMTOL
 70
     0
  9
$DIMLIM
 70
     0
  9
$DIMTIH
 70
     1
  9
$DIMTOH
 70
     1
  9
$DIMSE1
 70
     0
  9
$DIMSE2
 70
     0
  9
$DIMTAD
 70
     0
  9
$DIMZIN
 70
     0
  9
$DIMBLK
  1

  9
$DIMASO
 70
     1
  9
$DIMSHO
 70
     1
  9
$DIMPOST
  1

  9
$DIMAPOST
  1

  9
$DIMALT
 70
     0
  9
$DIMALTD
 70
     2
  9
$DIMALTF
 40
25.4
  9
$DIMLFAC
 40
1.0
  9
$DIMTOFL
 70
     0
  9
$DIMTVP
 40
0.0
  9
$DIMTIX
 70
     0
  9
$DIMSOXD
 70
     0
  9
$DIMSAH
 70
     0
  9
$DIMBLK1
  1

  9
$DIMBLK2
  1

  9
$DIMSTYLE
  2
Standard
  9
$DIMCLRD
 70
     0
  9
$DIMCLRE
 70
     0
  9
$DIMCLRT
 70
     0
  9
$DIMTFAC
 40
1.0
  9
$DIMGAP
 40
0.09
  9
$DIMJUST
 70
     0
  9
$DIMSD1
 70
     0
  9
$DIMSD2
 70
     0
  9
$DIMTOLJ
 70
     1
  9
$DIMTZIN
 70
     0
  9
$DIMALTZ
 70
     0
  9
$DIMALTTZ
 70
     0
  9
$DIMUPT
 70
     0
  9
$DIMDEC
 70
     4
  9
$DIMTDEC
 70
     4
  9
$DIMALTU
 70
     2
  9
$DIMALTTD
 70
     2
  9
$DIMTXSTY
  7
Standard
  9
$DIMAUNIT
 70
     0
  9
$DIMADEC
 70
     0
  9
$DIMALTRND
 40
0.0
  9
$DIMAZIN
 70
     0
  9
$DIMDSEP
 70
    46
  9
$DIMATFIT
 70
     3
  9
$DIMFRAC
 70
     0
  9
$DIMLDRBLK
  1

  9
$DIMLUNIT
 70
     2
  9
$DIMLWD
 70
    -2
  9
$DIMLWE
 70
    -2
  9
$DIMTMOVE
 70
     0
  9
$DIMFXL
 40
1.0
  9
$DIMFXLON
 70
     0
  9
$DIMJOGANG
 40
0.7853981633974483
  9
$DIMTFILL
 70
     0
  9
$DIMTFILLCLR
 70
     0
  9
$DIMARCSYM
 70
     0
  9
$DIMLTYPE
  6

  9
$DIMLTEX1
  6

  9
$DIMLTEX2
  6

  9
$DIMTXTDIRECTION
 70
     0
  9
$LUNITS
 70
     2
  9
$LUPREC
 70
     4
  9
$SKETCHINC
 40
0.1
  9
$FILLETRAD
 40
0.5
  9
$AUNITS
 70
     0
  9
$AUPREC
 70
     0
  9
$MENU
  1
.
  9
$ELEVATION
 40
0.0
  9
$PELEVATION
 40
0.0
  9
$THICKNESS
 40
0.0
  9
$LIMCHECK
 70
     0
  9
$CHAMFERA
 40
0.5
  9
$CHAMFERB
 40
0.5
  9
$CHAMFERC
 40
1.0
  9
$CHAMFERD
 40
0.0
  9
$SKPOLY
 70
     0
  9
$TDCREATE
 40
2459811.818854965
  9
$TDUCREATE
 40
2459811.485521632
  9
$TDUPDATE
 40
2459811.818855046
  9
$TDUUPDATE
 40
2459811.485521713
  9
$TDINDWG
 40
0.0000000116
  9
$TDUSRTIMER
 40
0.0000000116
  9
$USRTIMER
 70
     1
  9
$ANGBASE
 50
0.0
  9
$ANGDIR
 70
     0
  9
$PDMODE
 70
     0
  9
$PDSIZE
 40
0.0
  9
$PLINEWID
 40
0.0
  9
$SPLFRAME
 70
     0
  9
$SPLINETYPE
 70
     6
  9
$SPLINESEGS
 70
     8
  9
$HANDSEED
  5
63
  9
$SURFTAB1
 70
     6
  9
$SURFTAB2
 70
     6
  9
$SURFTYPE
 70
     6
  9
$SURFU
 70
     6
  9
$SURFV
 70
     6
  9
$UCSBASE
  2

  9
$UCSNAME
  2

  9
$UCSORG
 10
0.0
 20
0.0
 30
0.0
  9
$UCSXDIR
 10
1.0
 20
0.0
 30
0.0
  9
$UCSYDIR
 10
0.0
 20
1.0
 30
0.0
  9
$UCSORTHOREF
  2

  9
$UCSORTHOVIEW
 70
     0
  9
$UCSORGTOP
 10
0.0
 20
0.0
 30
0.0
  9
$UCSORGBOTTOM
 10
0.0
 20
0.0
 30
0.0
  9
$UCSORGLEFT
 10
0.0
 20
0.0
 30
0.0
  9
$UCSORGRIGHT
 10
0.0
 20
0.0
 30
0.0
  9
$UCSORGFRONT
 10
0.0
 20
0.0
 30
0.0
  9
$UCSORGBACK
 10
0.0
 20
0.0
 30
0.0
  9
$PUCSBASE
  2

  9
$PUCSNAME
  2

  9
$PUCSORG
 10
0.0
 20
0.0
 30
0.0
  9
$PUCSXDIR
 10
1.0
 20
0.0
 30
0.0
  9
$PUCSYDIR
 10
0.0
 20
1.0
 30
0.0
  9
$PUCSORTHOREF
  2

  9
$PUCSORTHOVIEW
 70
     0
  9
$PUCSORGTOP
 10
0.0
 20
0.0
 30
0.0
  9
$PUCSORGBOTTOM
 10
0.0
 20
0.0
 30
0.0
  9
$PUCSORGLEFT
 10
0.0
 20
0.0
 30
0.0
  9
$PUCSORGRIGHT
 10
0.0
 20
0.0
 30
0.0
  9
$PUCSORGFRONT
 10
0.0
 20
0.0
 30
0.0
  9
$PUCSORGBACK
 10
0.0
 20
0.0
 30
0.0
  9
$USERI1
 70
     0
  9
$USERI2
 70
     0
  9
$USERI3
 70
     0
  9
$USERI4
 70
     0
  9
$USERI5
 70
     0
  9
$USERR1
 40
0.0
  9
$USERR2
 40
0.0
  9
$USERR3
 40
0.0
  9
$USERR4
 40
0.0
  9
$USERR5
 40
0.0
  9
$WORLDVIEW
 70
     1
  9
$SHADEDGE
 70
     3
  9
$SHADEDIF
 70
    70
  9
$TILEMODE
 70
     1
  9
$MAXACTVP
 70
    64
  9
$PINSBASE
 10
0.0
 20
0.0
 30
0.0
  9
$PLIMCHECK
 70
     0
  9
$PEXTMIN
 10
1.000000000000000E+20
 20
1.000000000000000E+20
 30
1.000000000000000E+20
  9
$PEXTMAX
 10
-1.000000000000000E+20
 20
-1.000000000000000E+20
 30
-1.000000000000000E+20
  9
$PLIMMIN
 10
0.0
 20
0.0
  9
$PLIMMAX
 10
12.0
 20
9.0
  9
$UNITMODE
 70
     0
  9
$VISRETAIN
 70
     1
  9
$PLINEGEN
 70
     0
  9
$PSLTSCALE
 70
     1
  9
$TREEDEPTH
 70
  3020
  9
$CMLSTYLE
  2
Standard
  9
$CMLJUST
 70
     0
  9
$CMLSCALE
 40
1.0
  9
$PROXYGRAPHICS
 70
     1
  9
$MEASUREMENT
 70
     0
  9
$CELWEIGHT
370
    -1
  9
$ENDCAPS
280
     0
  9
$JOINSTYLE
280
     0
  9
$LWDISPLAY
290
     1
  9
$INSUNITS
 70
     0
  9
$HYPERLINKBASE
  1

  9
$STYLESHEET
  1

  9
$XEDIT
290
     1
  9
$CEPSNTYPE
380
     0
  9
$PSTYLEMODE
290
     1
  9
$FINGERPRINTGUID
  2
{2A3E36B0-22BA-42FA-8421-0BD178BF7FE4}
  9
$VERSIONGUID
  2
{FAEB1C32-E019-11D5-929B-00C0DF256EC4}
  9
$EXTNAMES
290
     1
  9
$PSVPSCALE
 40
0.0
  9
$OLESTARTUP
290
     0
  9
$SORTENTS
280
   127
  9
$INDEXCTL
280
     0
  9
$HIDETEXT
280
     1
  9
$XCLIPFRAME
280
     2
  9
$HALOGAP
280
     0
  9
$OBSCOLOR
 70
   257
  9
$OBSLTYPE
280
     0
  9
$INTERSECTIONDISPLAY
280
     0
  9
$INTERSECTIONCOLOR
 70
   257
  9
$DIMASSOC
280
     2
  9
$PROJECTNAME
  1

  9
$CAMERADISPLAY
290
     0
  9
$LENSLENGTH
 40
50.0
  9
$CAMERAHEIGHT
 40
0.0
  9
$STEPSPERSEC
 40
2.0
  9
$STEPSIZE
 40
6.0
  9
$3DDWFPREC
 40
2.0
  9
$PSOLWIDTH
 40
0.25
  9
$PSOLHEIGHT
 40
4.0
  9
$LOFTANG1
 40
1.570796326794897
  9
$LOFTANG2
 40
1.570796326794897
  9
$LOFTMAG1
 40
0.0
  9
$LOFTMAG2
 40
0.0
  9
$LOFTPARAM
 70
     7
  9
$LOFTNORMALS
280
     1
  9
$LATITUDE
 40
37.795
  9
$LONGITUDE
 40
-122.394
  9
$NORTHDIRECTION
 40
0.0
  9
$TIMEZONE
 70
 -8000
  9
$LIGHTGLYPHDISPLAY
280
     1
  9
$TILEMODELIGHTSYNCH
280
     1
  9
$CMATERIAL
347
3C
  9
$SOLIDHIST
280
     1
  9
$SHOWHIST
280
     1
  9
$DWFFRAME
280
     2
  9
$DGNFRAME
280
     2
  9
$REALWORLDSCALE
290
     1
  9
$INTERFERECOLOR
 62
   256
  9
$CSHADOW
280
     0
  9
$SHADOWPLANELOCATION
 40
0.0
  0
ENDSEC
  0
SECTION
  2
CLASSES
  0
CLASS
  1
ACDBDICTIONARYWDFLT
  2
AcDbDictionaryWithDefault
  3
ObjectDBX Classes
 90
        0
 91
        4
280
     0
281
     0
  0
CLASS
  1
VISUALSTYLE
  2
AcDbVisualStyle
  3
ObjectDBX Classes
 90
     4095
 91
        4
280
     0
281
     0
  0
CLASS
  1
MATERIAL
  2
AcDbMaterial
  3
ObjectDBX Classes
 90
     1153
 91
        4
280
     0
281
     0
  0
CLASS
  1
SUN
  2
AcDbSun
  3
SCENEOE
 90
     1024
 91
        4
280
     0
281
     0
  0
ENDSEC
  0
SECTION
  2
TABLES
  0
TABLE
  2
VPORT
  5
8
330
0
100
AcDbSymbolTable
 70
     1
  0
VPORT
  5
29
330
8
100
AcDbSymbolTableRecord
100
AcDbViewportTableRecord
  2
*Active
 70
     0
 10
0.0
 20
0.0
 11
1.0
 21
1.0
 12
0.0
 22
0.0
 13
0.0
 23
0.0
 14
0.5
 24
0.5
 15
0.5
 25
0.5
 16
0.0
 26
0.0
 36
1.0
 17
388.8503937007877
 27
173.4173228346467
 37
0.0
 40
949.0393700787399
 41
1.388291517323775
 42
50.0
 43
0.0
 44
0.0
 50
0.0
 51
0.0
 71
     0
 72
   100
 73
     1
 74
     3
 75
     0
 76
     0
 77
     0
 78
     0
281
     0
 65
     1
110
0.0
120
0.0
130
0.0
111
1.0
121
0.0
131
0.0
112
0.0
122
1.0
132
0.0
 79
     0
146
0.0
 60
     3
 61
     5
292
     1
282
     1
141
0.0
142
0.0
 63
   250
361
3F
  0
ENDTAB
  0
TABLE
  2
LTYPE
  5
5
330
0
100
AcDbSymbolTable
 70
     1
  0
LTYPE
  5
14
330
5
100
AcDbSymbolTableRecord
100
AcDbLinetypeTableRecord
  2
ByBlock
 70
     0
  3

 72
    65
 73
     0
 40
0.0
  0
LTYPE
  5
15
330
5
100
AcDbSymbolTableRecord
100
AcDbLinetypeTableRecord
  2
ByLayer
 70
     0
  3

 72
    65
 73
     0
 40
0.0
  0
LTYPE
  5
16
330
5
100
AcDbSymbolTableRecord
100
AcDbLinetypeTableRecord
  2
Continuous
 70
     0
  3
Solid line
 72
    65
 73
     0
 40
0.0
  0
ENDTAB
  0
TABLE
  2
LAYER
  5
2
330
0
100
AcDbSymbolTable
 70
     3
  0
LAYER
  5
10
330
2
100
AcDbSymbolTableRecord
100
AcDbLayerTableRecord
  2
0
 70
     0
 62
     7
  6
Continuous
370
    -3
390
F
347
3E
  0
LAYER
  5
40
330
2
100
AcDbSymbolTableRecord
100
AcDbLayerTableRecord
  2
_U+56FE_U+5C42 2
 70
     0
 62
     7
  6
Continuous
370
    -3
390
F
347
3E
  0
LAYER
  5
56
330
2
100
AcDbSymbolTableRecord
100
AcDbLayerTableRecord
  2
_U+56FE_U+5C42 1
 70
     0
 62
     7
  6
Continuous
370
    -3
390
F
347
3E
  0
ENDTAB
  0
TABLE
  2
STYLE
  5
3
330
0
100
AcDbSymbolTable
 70
     1
  0
STYLE
  5
11
330
3
100
AcDbSymbolTableRecord
100
AcDbTextStyleTableRecord
  2
Standard
 70
     0
 40
0.0
 41
1.0
 50
0.0
 71
     0
 42
0.2
  3
txt
  4

  0
ENDTAB
  0
TABLE
  2
VIEW
  5
6
330
0
100
AcDbSymbolTable
 70
     0
  0
ENDTAB
  0
TABLE
  2
UCS
  5
7
330
0
100
AcDbSymbolTable
 70
     0
  0
ENDTAB
  0
TABLE
  2
APPID
  5
9
330
0
100
AcDbSymbolTable
 70
     1
  0
APPID
  5
12
330
9
100
AcDbSymbolTableRecord
100
AcDbRegAppTableRecord
  2
ACAD
 70
     0
  0
ENDTAB
  0
TABLE
  2
DIMSTYLE
  5
A
330
0
100
AcDbSymbolTable
 70
     1
100
AcDbDimStyleTable
  0
DIMSTYLE
105
27
330
A
100
AcDbSymbolTableRecord
100
AcDbDimStyleTableRecord
  2
Standard
 70
     0
178
     0
340
11
  0
ENDTAB
  0
TABLE
  2
BLOCK_RECORD
  5
1
330
0
100
AcDbSymbolTable
 70
     3
  0
BLOCK_RECORD
  5
1F
330
1
100
AcDbSymbolTableRecord
100
AcDbBlockTableRecord
  2
*Model_Space
340
22
 70
     0
280
     1
281
     0
  0
BLOCK_RECORD
  5
1B
330
1
100
AcDbSymbolTableRecord
100
AcDbBlockTableRecord
  2
*Paper_Space
340
1E
 70
     0
280
     1
281
     0
  0
BLOCK_RECORD
  5
23
330
1
100
AcDbSymbolTableRecord
100
AcDbBlockTableRecord
  2
*Paper_Space0
340
26
 70
     0
280
     1
281
     0
  0
BLOCK_RECORD
  5
45
330
1
100
AcDbSymbolTableRecord
100
AcDbBlockTableRecord
  2
block 2
340
0
102
{BLKREFS
331
46
102
}
 70
     0
280
     1
281
     0
  0
BLOCK_RECORD
  5
57
330
1
100
AcDbSymbolTableRecord
100
AcDbBlockTableRecord
  2
block 3
340
0
102
{BLKREFS
331
58
102
}
 70
     0
280
     1
281
     0
  0
ENDTAB
  0
ENDSEC
  0
SECTION
  2
BLOCKS
  0
BLOCK
  5
20
330
1F
100
AcDbEntity
  8
0
100
AcDbBlockBegin
  2
*Model_Space
 70
     0
 10
0.0
 20
0.0
 30
0.0
  3
*Model_Space
  1

  0
ENDBLK
  5
21
330
1F
100
AcDbEntity
  8
0
100
AcDbBlockEnd
  0
BLOCK
  5
1C
330
1B
100
AcDbEntity
 67
     1
  8
0
100
AcDbBlockBegin
  2
*Paper_Space
 70
     0
 10
0.0
 20
0.0
 30
0.0
  3
*Paper_Space
  1

  0
ENDBLK
  5
1D
330
1B
100
AcDbEntity
 67
     1
  8
0
100
AcDbBlockEnd
  0
BLOCK
  5
24
330
23
100
AcDbEntity
  8
0
100
AcDbBlockBegin
  2
*Paper_Space0
 70
     0
 10
0.0
 20
0.0
 30
0.0
  3
*Paper_Space0
  1

  0
ENDBLK
  5
25
330
23
100
AcDbEntity
  8
0
100
AcDbBlockEnd
  0
BLOCK
  5
47
330
45
100
AcDbEntity
  8
0
100
AcDbBlockBegin
  2
block 2
 70
     0
 10
0.0
 20
0.0
 30
0.0
  3
block 2
  1

  0
SPLINE
  5
49
330
45
100
AcDbEntity
  8
_U+56FE_U+5C42 2
370
     0
100
AcDbSpline
210
0.0
220
0.0
230
1.0
 70
    24
 71
     3
 72
     8
 73
     4
 74
     0
 42
0.0000000001
 43
0.0000000001
 12
1.0
 22
0.0
 32
0.0
 13
1.0
 23
0.0
 33
0.0
 40
0.0
 40
0.0
 40
0.0
 40
0.0
 40
1.0
 40
1.0
 40
1.0
 40
1.0
 10
74.38311797463757
 20
109.9538392702725
 30
0.0
 10
74.38311797463757
 20
109.9538392702725
 30
0.0
 10
74.38340789162976
 20
109.9540528933194
 30
0.0
 10
74.38340789162976
 20
109.9540528933194
 30
0.0
  0
HATCH
  5
4A
330
45
100
AcDbEntity
  8
_U+56FE_U+5C42 2
 62
    41
420
 16767370
100
AcDbHatch
 10
0.0
 20
0.0
 30
0.0
210
0.0
220
0.0
230
1.0
  2
SOLID
 70
     1
 71
     0
 91
        1
 92
        1
 93
        2
 72
     4
 94
        3
 73
     0
 74
     0
 95
        8
 96
        4
 40
0.0
 40
0.0
 40
0.0
 40
0.0
 40
1.0
 40
1.0
 40
1.0
 40
1.0
 10
74.38311797463757
 20
109.9538392702725
 10
74.38311797463757
 20
109.9538392702725
 10
74.38340789162976
 20
109.9540528933194
 10
74.38340789162976
 20
109.9540528933194
 97
        0
 72
     1
 10
74.38340789162976
 20
109.9540528933194
 11
74.38311797463757
 21
109.9538392702725
 97
        0
 75
     2
 76
     1
 98
        0
  0
SPLINE
  5
4B
330
45
100
AcDbEntity
  8
_U+56FE_U+5C42 2
370
     0
100
AcDbSpline
210
0.0
220
0.0
230
1.0
 70
    11
 71
     3
 72
    17
 73
    13
 74
     0
 42
0.0000000001
 43
0.0000000001
 12
1.0
 22
0.0
 32
0.0
 13
1.0
 23
0.0
 33
0.0
 40
0.0
 40
0.0
 40
0.0
 40
0.0
 40
1.0
 40
1.0
 40
1.0
 40
2.0
 40
2.0
 40
2.0
 40
3.0
 40
3.0
 40
3.0
 40
4.0
 40
4.0
 40
4.0
 40
4.0
 10
395.2307667169043
 20
129.6560726616326
 30
0.0
 10
394.6828541192481
 20
129.6560726616326
 30
0.0
 10
394.2386402520606
 20
129.2118587944451
 30
0.0
 10
394.2386402520606
 20
128.6639461967889
 30
0.0
 10
394.2386402520606
 20
128.1159725639764
 30
0.0
 10
394.6828541192481
 20
127.6718197319451
 30
0.0
 10
395.2307667169043
 20
127.6718197319451
 30
0.0
 10
395.7786793145606
 20
127.6718197319451
 30
0.0
 10
396.2228931817481
 20
128.1159725639764
 30
0.0
 10
396.2228931817481
 20
128.6639461967889
 30
0.0
 10
396.2228931817481
 20
129.2118587944451
 30
0.0
 10
395.7786793145606
 20
129.6560726616326
 30
0.0
 10
395.2307667169043
 20
129.6560726616326
 30
0.0
  0
HATCH
  5
4C
330
45
100
AcDbEntity
  8
_U+56FE_U+5C42 2
 62
    41
420
 16767370
100
AcDbHatch
 10
0.0
 20
0.0
 30
0.0
210
0.0
220
0.0
230
1.0
  2
SOLID
 70
     1
 71
     0
 91
        1
 92
        1
 93
        1
 72
     4
 94
        3
 73
     0
 74
     1
 95
       17
 96
       13
 40
0.0
 40
0.0
 40
0.0
 40
0.0
 40
1.0
 40
1.0
 40
1.0
 40
2.0
 40
2.0
 40
2.0
 40
3.0
 40
3.0
 40
3.0
 40
4.0
 40
4.0
 40
4.0
 40
4.0
 10
395.2307667169043
 20
129.6560726616326
 10
394.6828541192481
 20
129.6560726616326
 10
394.2386402520606
 20
129.2118587944451
 10
394.2386402520606
 20
128.6639461967889
 10
394.2386402520606
 20
128.1159725639764
 10
394.6828541192481
 20
127.6718197319451
 10
395.2307667169043
 20
127.6718197319451
 10
395.7786793145606
 20
127.6718197319451
 10
396.2228931817481
 20
128.1159725639764
 10
396.2228931817481
 20
128.6639461967889
 10
396.2228931817481
 20
129.2118587944451
 10
395.7786793145606
 20
129.6560726616326
 10
395.2307667169043
 20
129.6560726616326
 97
        0
 97
        0
 75
     2
 76
     1
 98
        0
  0
POLYLINE
  5
4D
330
45
100
AcDbEntity
  8
_U+56FE_U+5C42 2
 62
     7
420
 16777215
370
    35
100
AcDb2dPolyline
 66
     1
 10
0.0
 20
0.0
 30
0.0
  0
VERTEX
  5
4E
330
4D
100
AcDbEntity
  8
_U+56FE_U+5C42 2
 62
     7
420
 16777215
370
    35
100
AcDbVertex
100
AcDb2dVertex
 10
165.2271118164062
 20
102.7739868164062
 30
0.0
  0
VERTEX
  5
4F
330
4D
100
AcDbEntity
  8
_U+56FE_U+5C42 2
 62
     7
420
 16777215
370
    35
100
AcDbVertex
100
AcDb2dVertex
 10
164.4843139648438
 20
102.1513061523438
 30
0.0
  0
VERTEX
  5
50
330
4D
100
AcDbEntity
  8
_U+56FE_U+5C42 2
 62
     7
420
 16777215
370
    35
100
AcDbVertex
100
AcDb2dVertex
 10
165.2271728515625
 20
102.7739868164062
 30
0.0
  0
VERTEX
  5
51
330
4D
100
AcDbEntity
  8
_U+56FE_U+5C42 2
 62
     7
420
 16777215
370
    35
100
AcDbVertex
100
AcDb2dVertex
 10
165.2271118164062
 20
102.7739868164062
 30
0.0
  0
SEQEND
  5
53
330
4D
100
AcDbEntity
  8
_U+56FE_U+5C42 2
 62
     7
420
 16777215
370
    35
  0
HATCH
  5
52
330
45
100
AcDbEntity
  8
_U+56FE_U+5C42 2
 62
   163
420
  8027586
100
AcDbHatch
 10
0.0
 20
0.0
 30
0.0
210
0.0
220
0.0
230
1.0
  2
SOLID
 70
     1
 71
     0
 91
        1
 92
        1
 93
        3
 72
     1
 10
165.2271118164062
 20
102.7739868164062
 11
164.4843139648438
 21
102.1513061523438
 72
     1
 10
164.4843139648438
 20
102.1513061523438
 11
165.2271728515625
 21
102.7739868164062
 72
     1
 10
165.2271728515625
 20
102.7739868164062
 11
165.2271118164062
 21
102.7739868164062
 97
        0
 75
     2
 76
     1
 98
        0
  0
SPLINE
  5
54
330
45
100
AcDbEntity
  8
_U+56FE_U+5C42 2
370
     0
100
AcDbSpline
210
0.0
220
0.0
230
1.0
 70
    11
 71
     3
 72
    38
 73
    34
 74
     0
 42
0.0000000001
 43
0.0000000001
 12
1.0
 22
0.0
 32
0.0
 13
1.0
 23
0.0
 33
0.0
 40
0.0
 40
0.0
 40
0.0
 40
0.0
 40
1.0
 40
1.0
 40
1.0
 40
2.0
 40
2.0
 40
2.0
 40
3.0
 40
3.0
 40
3.0
 40
4.0
 40
4.0
 40
4.0
 40
5.0
 40
5.0
 40
5.0
 40
6.0
 40
6.0
 40
6.0
 40
7.0
 40
7.0
 40
7.0
 40
8.0
 40
8.0
 40
8.0
 40
9.0
 40
9.0
 40
9.0
 40
10.0
 40
10.0
 40
10.0
 40
11.0
 40
11.0
 40
11.0
 40
11.0
 10
375.4510498046875
 20
299.4777832031259
 30
0.0
 10
375.4510498046875
 20
299.4777832031259
 30
0.0
 10
374.885986328125
 20
299.0032958984384
 30
0.0
 10
374.885986328125
 20
299.0032958984384
 30
0.0
 10
375.00537109375
 20
298.9856567382822
 30
0.0
 10
375.124755859375
 20
298.9707031250009
 30
0.0
 10
375.244140625
 20
298.9528808593759
 30
0.0
 10
372.778076171875
 20
266.8748168945322
 30
0.0
 10
362.7013549804688
 20
234.8734130859384
 30
0.0
 10
344.3746337890625
 20
205.5371093750009
 30
0.0
 10
300.9039306640625
 20
135.9519042968759
 30
0.0
 10
222.6109008789062
 20
99.93365478515716
 30
0.0
 10
144.8177490234375
 20
105.7976074218759
 30
0.0
 10
144.8177490234375
 20
105.7976074218759
 30
0.0
 10
144.0748901367188
 20
105.1749267578134
 30
0.0
 10
144.0748901367188
 20
105.1749267578134
 30
0.0
 10
144.0748901367188
 20
105.1749267578134
 30
0.0
 10
119.923828125
 20
30.920166015625
 30
0.0
 10
119.923828125
 20
30.920166015625
 30
0.0
 10
117.4490966796875
 20
23.3114013671875
 30
0.0
 10
124.6178588867188
 20
16.0921630859375
 30
0.0
 10
132.2437744140625
 20
18.513427734375
 30
0.0
 10
132.2437744140625
 20
18.513427734375
 30
0.0
 10
230.7721557617188
 20
49.796630859375
 30
0.0
 10
230.7721557617188
 20
49.796630859375
 30
0.0
 10
243.2509155273438
 20
46.76727294921875
 30
0.0
 10
256.3349609375
 20
45.1546630859375
 30
0.0
 10
269.819580078125
 20
45.1546630859375
 30
0.0
 10
355.8735961914062
 20
45.1546630859375
 30
0.0
 10
425.6340942382812
 20
110.7807006835947
 30
0.0
 10
425.6340942382812
 20
191.7345581054697
 30
0.0
 10
425.6340942382812
 20
234.3413085937509
 30
0.0
 10
406.3037109375
 20
272.6955566406259
 30
0.0
 10
375.4510498046875
 20
299.4777832031259
 30
0.0
  0
SPLINE
  5
55
330
45
100
AcDbEntity
  8
_U+56FE_U+5C42 2
370
     0
100
AcDbSpline
210
0.0
220
0.0
230
1.0
 70
    11
 71
     3
 72
    29
 73
    25
 74
     0
 42
0.0000000001
 43
0.0000000001
 12
1.0
 22
0.0
 32
0.0
 13
1.0
 23
0.0
 33
0.0
 40
0.0
 40
0.0
 40
0.0
 40
0.0
 40
1.0
 40
1.0
 40
1.0
 40
2.0
 40
2.0
 40
2.0
 40
3.0
 40
3.0
 40
3.0
 40
4.0
 40
4.0
 40
4.0
 40
5.0
 40
5.0
 40
5.0
 40
6.0
 40
6.0
 40
6.0
 40
7.0
 40
7.0
 40
7.0
 40
8.0
 40
8.0
 40
8.0
 40
8.0
 10
144.2472534179688
 20
105.8372802734375
 30
0.0
 10
142.7044067382812
 20
142.0231323242188
 30
0.0
 10
151.4884033203125
 20
178.4522094726562
 30
0.0
 10
171.8070678710938
 20
210.9771118164062
 30
0.0
 10
214.2037963867188
 20
278.8432006835938
 30
0.0
 10
294.95263671875
 20
310.8079833984375
 30
0.0
 10
374.885986328125
 20
299.0032958984375
 30
0.0
 10
374.885986328125
 20
299.0032958984375
 30
0.0
 10
375.4510498046875
 20
299.477783203125
 30
0.0
 10
375.4510498046875
 20
299.477783203125
 30
0.0
 10
347.6829223632812
 20
323.5823974609375
 30
0.0
 10
310.5825805664062
 20
338.3143920898438
 30
0.0
 10
269.819580078125
 20
338.3143920898438
 30
0.0
 10
183.765625
 20
338.3143920898438
 30
0.0
 10
114.0050659179688
 20
272.6883544921875
 30
0.0
 10
114.0050659179688
 20
191.7345581054688
 30
0.0
 10
114.0050659179688
 20
159.3540649414062
 30
0.0
 10
125.1744995117188
 20
129.4320678710938
 30
0.0
 10
144.0748901367188
 20
105.1749267578125
 30
0.0
 10
144.0748901367188
 20
105.1749267578125
 30
0.0
 10
144.8164672851562
 20
105.7976684570312
 30
0.0
 10
144.8164672851562
 20
105.7976684570312
 30
0.0
 10
144.6267700195312
 20
105.81201171875
 30
0.0
 10
144.4369506835938
 20
105.822509765625
 30
0.0
 10
144.2472534179688
 20
105.8372802734375
 30
0.0
  0
ENDBLK
  5
48
330
45
100
AcDbEntity
  8
0
100
AcDbBlockEnd
  0
BLOCK
  5
59
330
57
100
AcDbEntity
  8
0
100
AcDbBlockBegin
  2
block 3
 70
     0
 10
0.0
 20
0.0
 30
0.0
  3
block 3
  1

  0
SPLINE
  5
5B
330
57
100
AcDbEntity
  8
_U+56FE_U+5C42 1
370
     0
100
AcDbSpline
210
0.0
220
0.0
230
1.0
 70
    11
 71
     3
 72
    65
 73
    61
 74
     0
 42
0.0000000001
 43
0.0000000001
 12
1.0
 22
0.0
 32
0.0
 13
1.0
 23
0.0
 33
0.0
 40
0.0
 40
0.0
 40
0.0
 40
0.0
 40
1.0
 40
1.0
 40
1.0
 40
2.0
 40
2.0
 40
2.0
 40
3.0
 40
3.0
 40
3.0
 40
4.0
 40
4.0
 40
4.0
 40
5.0
 40
5.0
 40
5.0
 40
6.0
 40
6.0
 40
6.0
 40
7.0
 40
7.0
 40
7.0
 40
8.0
 40
8.0
 40
8.0
 40
9.0
 40
9.0
 40
9.0
 40
10.0
 40
10.0
 40
10.0
 40
11.0
 40
11.0
 40
11.0
 40
12.0
 40
12.0
 40
12.0
 40
13.0
 40
13.0
 40
13.0
 40
14.0
 40
14.0
 40
14.0
 40
15.0
 40
15.0
 40
15.0
 40
16.0
 40
16.0
 40
16.0
 40
17.0
 40
17.0
 40
17.0
 40
18.0
 40
18.0
 40
18.0
 40
19.0
 40
19.0
 40
19.0
 40
20.0
 40
20.0
 40
20.0
 40
20.0
 10
324.6385156915567
 20
169.3764591464687
 30
0.0
 10
319.1513330743692
 20
168.7495060214687
 30
0.0
 10
313.0937769220254
 20
168.0218448886562
 30
0.0
 10
307.0276148126504
 20
167.3715152988125
 30
0.0
 10
293.4408838556192
 20
165.9149723300625
 30
0.0
 10
279.8162500665567
 20
164.7465763339687
 30
0.0
 10
266.2711450860879
 20
162.9855289706875
 30
0.0
 10
255.0685694024942
 20
161.5291080722491
 30
0.0
 10
243.8490259454629
 20
160.3166446933428
 30
0.0
 10
232.6054956720254
 20
159.2725773105303
 30
0.0
 10
227.5674097345254
 20
158.8047428378741
 30
0.0
 10
222.4983179376504
 20
157.9426822909991
 30
0.0
 10
219.0787012384317
 20
154.0646915683428
 30
0.0
 10
214.9117090509317
 20
149.3392277011553
 30
0.0
 10
214.7881738946817
 20
141.8716373691241
 30
0.0
 10
218.7354395196817
 20
136.2858829745928
 30
0.0
 10
222.0569727228067
 20
131.5856266269366
 30
0.0
 10
227.1921655939004
 20
130.2664737949053
 30
0.0
 10
232.8496973321817
 20
131.0230655917803
 30
0.0
 10
248.1877710626504
 20
133.0743351230303
 30
0.0
 10
263.5505640314004
 20
134.9550724277178
 30
0.0
 10
278.8227197931192
 20
137.4674015292803
 30
0.0
 10
279.9460108087442
 20
137.6522159824053
 30
0.0
 10
281.4613306329629
 20
138.7650699863116
 30
0.0
 10
282.2529566095254
 20
137.4738102206866
 30
0.0
 10
283.0118677423379
 20
136.2357731113116
 30
0.0
 10
281.7212183282754
 20
135.0106144199053
 30
0.0
 10
281.0997583673379
 20
133.8524723300616
 30
0.0
 10
276.9635278985879
 20
126.1449527988116
 30
0.0
 10
271.3915064142129
 20
119.4341984042803
 30
0.0
 10
265.8068506524942
 20
112.7446232089678
 30
0.0
 10
261.3649561212442
 20
107.4239444980303
 30
0.0
 10
257.4374658868692
 20
101.7158756503741
 30
0.0
 10
252.7345850274942
 20
96.57982828709282
 30
0.0
 10
250.3346216485879
 20
93.95873453709282
 30
0.0
 10
248.7165796564004
 20
90.66521647068657
 30
0.0
 10
248.0551416681192
 20
87.07085611912407
 30
0.0
 10
247.0675318048379
 20
81.70391275974907
 30
0.0
 10
249.3389551446817
 20
78.24144938084282
 30
0.0
 10
254.0715601251504
 20
75.76574137303032
 30
0.0
 10
260.7749903009317
 20
72.25908854099907
 30
0.0
 10
270.3702051446817
 20
75.60515787693657
 30
0.0
 10
274.8587915704629
 20
80.33916666599907
 30
0.0
 10
279.9313013360879
 20
85.68914225193657
 30
0.0
 10
285.4339868829629
 20
90.67309000584282
 30
0.0
 10
289.8254053399942
 20
96.60466959568657
 30
0.0
 10
295.9456445978067
 20
104.8715152988116
 30
0.0
 10
303.3547022149942
 20
112.0609684238116
 30
0.0
 10
309.8110010431192
 20
120.0407047519366
 30
0.0
 10
311.4277002618692
 20
122.0388736972491
 30
0.0
 10
312.8274805353067
 20
124.2613468417803
 30
0.0
 10
314.6956445978067
 20
125.9982242831866
 30
0.0
 10
321.4476587579629
 20
132.2757511386553
 30
0.0
 10
327.0162012384317
 20
139.5841617831866
 30
0.0
 10
333.3125269220254
 20
146.2536564120928
 30
0.0
 10
334.8665430353067
 20
147.8997745761553
 30
0.0
 10
335.9545557306192
 20
149.8883610019366
 30
0.0
 10
336.8081934259317
 20
151.9368229159991
 30
0.0
 10
341.2068140314004
 20
162.4924869785
 30
0.0
 10
333.2323267267129
 20
169.0909977206875
 30
0.0
 10
324.6385156915567
 20
169.3764591464687
 30
0.0
  0
HATCH
  5
5C
330
57
100
AcDbEntity
  8
_U+56FE_U+5C42 1
 62
     7
420
 16711422
100
AcDbHatch
 10
0.0
 20
0.0
 30
0.0
210
0.0
220
0.0
230
1.0
  2
SOLID
 70
     1
 71
     0
 91
        1
 92
        1
 93
        1
 72
     4
 94
        3
 73
     0
 74
     1
 95
       65
 96
       61
 40
0.0
 40
0.0
 40
0.0
 40
0.0
 40
1.0
 40
1.0
 40
1.0
 40
2.0
 40
2.0
 40
2.0
 40
3.0
 40
3.0
 40
3.0
 40
4.0
 40
4.0
 40
4.0
 40
5.0
 40
5.0
 40
5.0
 40
6.0
 40
6.0
 40
6.0
 40
7.0
 40
7.0
 40
7.0
 40
8.0
 40
8.0
 40
8.0
 40
9.0
 40
9.0
 40
9.0
 40
10.0
 40
10.0
 40
10.0
 40
11.0
 40
11.0
 40
11.0
 40
12.0
 40
12.0
 40
12.0
 40
13.0
 40
13.0
 40
13.0
 40
14.0
 40
14.0
 40
14.0
 40
15.0
 40
15.0
 40
15.0
 40
16.0
 40
16.0
 40
16.0
 40
17.0
 40
17.0
 40
17.0
 40
18.0
 40
18.0
 40
18.0
 40
19.0
 40
19.0
 40
19.0
 40
20.0
 40
20.0
 40
20.0
 40
20.0
 10
324.6385156915567
 20
169.3764591464687
 10
319.1513330743692
 20
168.7495060214687
 10
313.0937769220254
 20
168.0218448886562
 10
307.0276148126504
 20
167.3715152988125
 10
293.4408838556192
 20
165.9149723300625
 10
279.8162500665567
 20
164.7465763339687
 10
266.2711450860879
 20
162.9855289706875
 10
255.0685694024942
 20
161.5291080722491
 10
243.8490259454629
 20
160.3166446933428
 10
232.6054956720254
 20
159.2725773105303
 10
227.5674097345254
 20
158.8047428378741
 10
222.4983179376504
 20
157.9426822909991
 10
219.0787012384317
 20
154.0646915683428
 10
214.9117090509317
 20
149.3392277011553
 10
214.7881738946817
 20
141.8716373691241
 10
218.7354395196817
 20
136.2858829745928
 10
222.0569727228067
 20
131.5856266269366
 10
227.1921655939004
 20
130.2664737949053
 10
232.8496973321817
 20
131.0230655917803
 10
248.1877710626504
 20
133.0743351230303
 10
263.5505640314004
 20
134.9550724277178
 10
278.8227197931192
 20
137.4674015292803
 10
279.9460108087442
 20
137.6522159824053
 10
281.4613306329629
 20
138.7650699863116
 10
282.2529566095254
 20
137.4738102206866
 10
283.0118677423379
 20
136.2357731113116
 10
281.7212183282754
 20
135.0106144199053
 10
281.0997583673379
 20
133.8524723300616
 10
276.9635278985879
 20
126.1449527988116
 10
271.3915064142129
 20
119.4341984042803
 10
265.8068506524942
 20
112.7446232089678
 10
261.3649561212442
 20
107.4239444980303
 10
257.4374658868692
 20
101.7158756503741
 10
252.7345850274942
 20
96.57982828709282
 10
250.3346216485879
 20
93.95873453709282
 10
248.7165796564004
 20
90.66521647068657
 10
248.0551416681192
 20
87.07085611912407
 10
247.0675318048379
 20
81.70391275974907
 10
249.3389551446817
 20
78.24144938084282
 10
254.0715601251504
 20
75.76574137303032
 10
260.7749903009317
 20
72.25908854099907
 10
270.3702051446817
 20
75.60515787693657
 10
274.8587915704629
 20
80.33916666599907
 10
279.9313013360879
 20
85.68914225193657
 10
285.4339868829629
 20
90.67309000584282
 10
289.8254053399942
 20
96.60466959568657
 10
295.9456445978067
 20
104.8715152988116
 10
303.3547022149942
 20
112.0609684238116
 10
309.8110010431192
 20
120.0407047519366
 10
311.4277002618692
 20
122.0388736972491
 10
312.8274805353067
 20
124.2613468417803
 10
314.6956445978067
 20
125.9982242831866
 10
321.4476587579629
 20
132.2757511386553
 10
327.0162012384317
 20
139.5841617831866
 10
333.3125269220254
 20
146.2536564120928
 10
334.8665430353067
 20
147.8997745761553
 10
335.9545557306192
 20
149.8883610019366
 10
336.8081934259317
 20
151.9368229159991
 10
341.2068140314004
 20
162.4924869785
 10
333.2323267267129
 20
169.0909977206875
 10
324.6385156915567
 20
169.3764591464687
 97
        0
 97
        0
 75
     2
 76
     1
 98
        0
  0
SPLINE
  5
5D
330
57
100
AcDbEntity
  8
_U+56FE_U+5C42 1
370
     0
100
AcDbSpline
210
0.0
220
0.0
230
1.0
 70
    11
 71
     3
 72
    44
 73
    40
 74
     0
 42
0.0000000001
 43
0.0000000001
 12
1.0
 22
0.0
 32
0.0
 13
1.0
 23
0.0
 33
0.0
 40
0.0
 40
0.0
 40
0.0
 40
0.0
 40
1.0
 40
1.0
 40
1.0
 40
2.0
 40
2.0
 40
2.0
 40
3.0
 40
3.0
 40
3.0
 40
4.0
 40
4.0
 40
4.0
 40
5.0
 40
5.0
 40
5.0
 40
6.0
 40
6.0
 40
6.0
 40
7.0
 40
7.0
 40
7.0
 40
8.0
 40
8.0
 40
8.0
 40
9.0
 40
9.0
 40
9.0
 40
10.0
 40
10.0
 40
10.0
 40
11.0
 40
11.0
 40
11.0
 40
12.0
 40
12.0
 40
12.0
 40
13.0
 40
13.0
 40
13.0
 40
13.0
 10
339.9134180353067
 20
222.9808292636562
 30
0.0
 10
330.0214502618692
 20
222.0576114902187
 30
0.0
 10
320.1272852228067
 20
221.1749820956875
 30
0.0
 10
310.2494776056192
 20
220.1038151035
 30
0.0
 10
292.2944605157754
 20
218.156793619125
 30
0.0
 10
274.3297998712442
 20
216.2960758456875
 30
0.0
 10
256.3716699884317
 20
214.3761539706875
 30
0.0
 10
244.9275171564004
 20
213.1526432285
 30
0.0
 10
233.4714014337442
 20
212.0165348300625
 30
0.0
 10
222.0519068048379
 20
210.5982609042812
 30
0.0
 10
213.6522486017129
 20
209.5551090488125
 30
0.0
 10
205.1551172540567
 20
209.23027994725
 30
0.0
 10
196.8589136407754
 20
207.40020182225
 30
0.0
 10
194.7182886407754
 20
206.9279728183437
 30
0.0
 10
192.7644312189004
 20
206.2424869785
 30
0.0
 10
191.4980737970254
 20
204.2601261386562
 30
0.0
 10
186.3454859064004
 20
196.1942081699062
 30
0.0
 10
187.2005884454629
 20
190.0936222324062
 30
0.0
 10
194.3308985040567
 20
183.522516275375
 30
0.0
 10
196.0559961603067
 20
181.9327335605312
 30
0.0
 10
197.9211084649942
 20
181.3236637363125
 30
0.0
 10
200.2010156915567
 20
181.690973306625
 30
0.0
 10
210.6850244806192
 20
183.380182291
 30
0.0
 10
221.2895777032754
 20
184.0983219394375
 30
0.0
 10
231.8291895196817
 20
185.3265323886562
 30
0.0
 10
257.9537012384317
 20
188.37090494725
 30
0.0
 10
284.1437647149942
 20
190.8736515292812
 30
0.0
 10
310.3092310235879
 20
193.5775699863125
 30
0.0
 10
322.0999414728067
 20
194.795953775375
 30
0.0
 10
333.9174463556192
 20
195.7974796542812
 30
0.0
 10
345.6800806329629
 20
197.2340030917812
 30
0.0
 10
353.6518213556192
 20
198.2076359042812
 30
0.0
 10
355.1305811212442
 20
200.2138004550625
 30
0.0
 10
355.1717188165567
 20
208.2467594394375
 30
0.0
 10
355.1943628595254
 20
208.4423160800625
 30
0.0
 10
355.2924463556192
 20
208.77813150975
 30
0.0
 10
355.2624780939004
 20
209.1025333652187
 30
0.0
 10
354.1912500665567
 20
220.6769962558437
 30
0.0
 10
351.5579492853067
 20
224.067682291
 30
0.0
 10
339.9134180353067
 20
222.9808292636562
 30
0.0
  0
HATCH
  5
5E
330
57
100
AcDbEntity
  8
_U+56FE_U+5C42 1
 62
     7
420
 16711422
100
AcDbHatch
 10
0.0
 20
0.0
 30
0.0
210
0.0
220
0.0
230
1.0
  2
SOLID
 70
     1
 71
     0
 91
        1
 92
        1
 93
        1
 72
     4
 94
        3
 73
     0
 74
     1
 95
       44
 96
       40
 40
0.0
 40
0.0
 40
0.0
 40
0.0
 40
1.0
 40
1.0
 40
1.0
 40
2.0
 40
2.0
 40
2.0
 40
3.0
 40
3.0
 40
3.0
 40
4.0
 40
4.0
 40
4.0
 40
5.0
 40
5.0
 40
5.0
 40
6.0
 40
6.0
 40
6.0
 40
7.0
 40
7.0
 40
7.0
 40
8.0
 40
8.0
 40
8.0
 40
9.0
 40
9.0
 40
9.0
 40
10.0
 40
10.0
 40
10.0
 40
11.0
 40
11.0
 40
11.0
 40
12.0
 40
12.0
 40
12.0
 40
13.0
 40
13.0
 40
13.0
 40
13.0
 10
339.9134180353067
 20
222.9808292636562
 10
330.0214502618692
 20
222.0576114902187
 10
320.1272852228067
 20
221.1749820956875
 10
310.2494776056192
 20
220.1038151035
 10
292.2944605157754
 20
218.156793619125
 10
274.3297998712442
 20
216.2960758456875
 10
256.3716699884317
 20
214.3761539706875
 10
244.9275171564004
 20
213.1526432285
 10
233.4714014337442
 20
212.0165348300625
 10
222.0519068048379
 20
210.5982609042812
 10
213.6522486017129
 20
209.5551090488125
 10
205.1551172540567
 20
209.23027994725
 10
196.8589136407754
 20
207.40020182225
 10
194.7182886407754
 20
206.9279728183437
 10
192.7644312189004
 20
206.2424869785
 10
191.4980737970254
 20
204.2601261386562
 10
186.3454859064004
 20
196.1942081699062
 10
187.2005884454629
 20
190.0936222324062
 10
194.3308985040567
 20
183.522516275375
 10
196.0559961603067
 20
181.9327335605312
 10
197.9211084649942
 20
181.3236637363125
 10
200.2010156915567
 20
181.690973306625
 10
210.6850244806192
 20
183.380182291
 10
221.2895777032754
 20
184.0983219394375
 10
231.8291895196817
 20
185.3265323886562
 10
257.9537012384317
 20
188.37090494725
 10
284.1437647149942
 20
190.8736515292812
 10
310.3092310235879
 20
193.5775699863125
 10
322.0999414728067
 20
194.795953775375
 10
333.9174463556192
 20
195.7974796542812
 10
345.6800806329629
 20
197.2340030917812
 10
353.6518213556192
 20
198.2076359042812
 10
355.1305811212442
 20
200.2138004550625
 10
355.1717188165567
 20
208.2467594394375
 10
355.1943628595254
 20
208.4423160800625
 10
355.2924463556192
 20
208.77813150975
 10
355.2624780939004
 20
209.1025333652187
 10
354.1912500665567
 20
220.6769962558437
 10
351.5579492853067
 20
224.067682291
 10
339.9134180353067
 20
222.9808292636562
 97
        0
 97
        0
 75
     2
 76
     1
 98
        0
  0
SPLINE
  5
5F
330
57
100
AcDbEntity
  8
_U+56FE_U+5C42 1
370
     0
100
AcDbSpline
210
0.0
220
0.0
230
1.0
 70
    11
 71
     3
 72
    59
 73
    55
 74
     0
 42
0.0000000001
 43
0.0000000001
 12
1.0
 22
0.0
 32
0.0
 13
1.0
 23
0.0
 33
0.0
 40
0.0
 40
0.0
 40
0.0
 40
0.0
 40
1.0
 40
1.0
 40
1.0
 40
2.0
 40
2.0
 40
2.0
 40
3.0
 40
3.0
 40
3.0
 40
4.0
 40
4.0
 40
4.0
 40
5.0
 40
5.0
 40
5.0
 40
6.0
 40
6.0
 40
6.0
 40
7.0
 40
7.0
 40
7.0
 40
8.0
 40
8.0
 40
8.0
 40
9.0
 40
9.0
 40
9.0
 40
10.0
 40
10.0
 40
10.0
 40
11.0
 40
11.0
 40
11.0
 40
12.0
 40
12.0
 40
12.0
 40
13.0
 40
13.0
 40
13.0
 40
14.0
 40
14.0
 40
14.0
 40
15.0
 40
15.0
 40
15.0
 40
16.0
 40
16.0
 40
16.0
 40
17.0
 40
17.0
 40
17.0
 40
18.0
 40
18.0
 40
18.0
 40
18.0
 10
362.6232569024942
 20
278.6981754550625
 30
0.0
 10
359.4695093439004
 20
278.4683780917812
 30
0.0
 10
356.3064844415567
 20
278.3421573886562
 30
0.0
 10
353.1595117853067
 20
278.046930337875
 30
0.0
 10
340.6778223321817
 20
276.8760929355312
 30
0.0
 10
328.1846582696817
 20
275.7980900058437
 30
0.0
 10
315.7262232110879
 20
274.4196720370937
 30
0.0
 10
299.9020044610879
 20
272.6688785800625
 30
0.0
 10
284.1126978204629
 20
270.6153507480312
 30
0.0
 10
268.2985498712442
 20
268.7736759433437
 30
0.0
 10
250.0102808282754
 20
266.643854166
 30
0.0
 10
231.6807520196817
 20
264.8295231113125
 30
0.0
 10
213.4255640314004
 20
262.459039712875
 30
0.0
 10
195.0550806329629
 20
260.0736027011562
 30
0.0
 10
176.6334497735879
 20
258.026422525375
 30
0.0
 10
158.3648340509317
 20
254.8849430331875
 30
0.0
 10
151.5934717462442
 20
253.7205753574062
 30
0.0
 10
150.4109766290567
 20
252.9647770175625
 30
0.0
 10
149.0551416681192
 20
246.3978214511562
 30
0.0
 10
148.7652857110879
 20
244.9940738925625
 30
0.0
 10
148.7293360040567
 20
243.5397281894375
 30
0.0
 10
148.5763819024942
 20
242.108697916
 30
0.0
 10
148.6345484064004
 20
242.1047306308437
 30
0.0
 10
148.6926538751504
 20
242.1008243808437
 30
0.0
 10
148.7508203790567
 20
242.0967960605312
 30
0.0
 10
148.7508203790567
 20
241.2082462558437
 30
0.0
 10
148.6734888360879
 20
240.312067056625
 30
0.0
 10
148.7627222345254
 20
239.4321232089687
 30
0.0
 10
149.7347070978067
 20
229.8449039706875
 30
0.0
 10
153.1407739923379
 20
226.4279117831875
 30
0.0
 10
161.1252710626504
 20
227.740289712875
 30
0.0
 10
177.9566919610879
 20
230.50664713475
 30
0.0
 10
194.7873194024942
 20
233.2440128574062
 30
0.0
 10
211.7407495782754
 20
235.2061710605312
 30
0.0
 10
224.0812647149942
 20
236.6344547519375
 30
0.0
 10
236.4095728204629
 20
238.1646671542812
 30
0.0
 10
248.7513696954629
 20
239.5815372714687
 30
0.0
 10
263.6667139337442
 20
241.2938175449062
 30
0.0
 10
278.5859644220254
 20
242.9753360995937
 30
0.0
 10
293.5124170587442
 20
244.5915470370937
 30
0.0
 10
303.3899805353067
 20
245.6610660800625
 30
0.0
 10
313.2866480157754
 20
246.56035807225
 30
0.0
 10
323.1685449884317
 20
247.5934391269375
 30
0.0
 10
336.5276758478067
 20
248.9899845370937
 30
0.0
 10
349.8952905939004
 20
250.326227212875
 30
0.0
 10
363.2297022149942
 20
251.9254703769375
 30
0.0
 10
368.7426416681192
 20
252.5866642245937
 30
0.0
 10
371.1905786798379
 20
255.4899845370937
 30
0.0
 10
371.1560938165567
 20
260.9356632480312
 30
0.0
 10
371.1218530939004
 20
266.3365421542812
 30
0.0
 10
369.5831568048379
 20
271.436578775375
 30
0.0
 10
367.0075952814004
 20
276.2319278964687
 30
0.0
 10
366.0512354181192
 20
278.01250650975
 30
0.0
 10
364.6662866876504
 20
278.8471012363125
 30
0.0
 10
362.6232569024942
 20
278.6981754550625
 30
0.0
  0
HATCH
  5
60
330
57
100
AcDbEntity
  8
_U+56FE_U+5C42 1
 62
     7
420
 16711422
100
AcDbHatch
 10
0.0
 20
0.0
 30
0.0
210
0.0
220
0.0
230
1.0
  2
SOLID
 70
     1
 71
     0
 91
        1
 92
        1
 93
        1
 72
     4
 94
        3
 73
     0
 74
     1
 95
       59
 96
       55
 40
0.0
 40
0.0
 40
0.0
 40
0.0
 40
1.0
 40
1.0
 40
1.0
 40
2.0
 40
2.0
 40
2.0
 40
3.0
 40
3.0
 40
3.0
 40
4.0
 40
4.0
 40
4.0
 40
5.0
 40
5.0
 40
5.0
 40
6.0
 40
6.0
 40
6.0
 40
7.0
 40
7.0
 40
7.0
 40
8.0
 40
8.0
 40
8.0
 40
9.0
 40
9.0
 40
9.0
 40
10.0
 40
10.0
 40
10.0
 40
11.0
 40
11.0
 40
11.0
 40
12.0
 40
12.0
 40
12.0
 40
13.0
 40
13.0
 40
13.0
 40
14.0
 40
14.0
 40
14.0
 40
15.0
 40
15.0
 40
15.0
 40
16.0
 40
16.0
 40
16.0
 40
17.0
 40
17.0
 40
17.0
 40
18.0
 40
18.0
 40
18.0
 40
18.0
 10
362.6232569024942
 20
278.6981754550625
 10
359.4695093439004
 20
278.4683780917812
 10
356.3064844415567
 20
278.3421573886562
 10
353.1595117853067
 20
278.046930337875
 10
340.6778223321817
 20
276.8760929355312
 10
328.1846582696817
 20
275.7980900058437
 10
315.7262232110879
 20
274.4196720370937
 10
299.9020044610879
 20
272.6688785800625
 10
284.1126978204629
 20
270.6153507480312
 10
268.2985498712442
 20
268.7736759433437
 10
250.0102808282754
 20
266.643854166
 10
231.6807520196817
 20
264.8295231113125
 10
213.4255640314004
 20
262.459039712875
 10
195.0550806329629
 20
260.0736027011562
 10
176.6334497735879
 20
258.026422525375
 10
158.3648340509317
 20
254.8849430331875
 10
151.5934717462442
 20
253.7205753574062
 10
150.4109766290567
 20
252.9647770175625
 10
149.0551416681192
 20
246.3978214511562
 10
148.7652857110879
 20
244.9940738925625
 10
148.7293360040567
 20
243.5397281894375
 10
148.5763819024942
 20
242.108697916
 10
148.6345484064004
 20
242.1047306308437
 10
148.6926538751504
 20
242.1008243808437
 10
148.7508203790567
 20
242.0967960605312
 10
148.7508203790567
 20
241.2082462558437
 10
148.6734888360879
 20
240.312067056625
 10
148.7627222345254
 20
239.4321232089687
 10
149.7347070978067
 20
229.8449039706875
 10
153.1407739923379
 20
226.4279117831875
 10
161.1252710626504
 20
227.740289712875
 10
177.9566919610879
 20
230.50664713475
 10
194.7873194024942
 20
233.2440128574062
 10
211.7407495782754
 20
235.2061710605312
 10
224.0812647149942
 20
236.6344547519375
 10
236.4095728204629
 20
238.1646671542812
 10
248.7513696954629
 20
239.5815372714687
 10
263.6667139337442
 20
241.2938175449062
 10
278.5859644220254
 20
242.9753360995937
 10
293.5124170587442
 20
244.5915470370937
 10
303.3899805353067
 20
245.6610660800625
 10
313.2866480157754
 20
246.56035807225
 10
323.1685449884317
 20
247.5934391269375
 10
336.5276758478067
 20
248.9899845370937
 10
349.8952905939004
 20
250.326227212875
 10
363.2297022149942
 20
251.9254703769375
 10
368.7426416681192
 20
252.5866642245937
 10
371.1905786798379
 20
255.4899845370937
 10
371.1560938165567
 20
260.9356632480312
 10
371.1218530939004
 20
266.3365421542812
 10
369.5831568048379
 20
271.436578775375
 10
367.0075952814004
 20
276.2319278964687
 10
366.0512354181192
 20
278.01250650975
 10
364.6662866876504
 20
278.8471012363125
 10
362.6232569024942
 20
278.6981754550625
 97
        0
 97
        0
 75
     2
 76
     1
 98
        0
  0
ENDBLK
  5
5A
330
57
100
AcDbEntity
  8
0
100
AcDbBlockEnd
  0
ENDSEC
  0
SECTION
  2
ENTITIES
  0
SPLINE
  5
41
330
1F
100
AcDbEntity
  8
_U+56FE_U+5C42 2
370
     0
100
AcDbSpline
210
0.0
220
0.0
230
1.0
 70
    24
 71
     3
 72
     8
 73
     4
 74
     0
 42
0.0000000001
 43
0.0000000001
 12
1.0
 22
0.0
 32
0.0
 13
1.0
 23
0.0
 33
0.0
 40
0.0
 40
0.0
 40
0.0
 40
0.0
 40
1.0
 40
1.0
 40
1.0
 40
1.0
 10
88.9227680584936
 20
-250.0919070467462
 30
0.0
 10
88.9227680584936
 20
-250.0919070467462
 30
0.0
 10
88.92305797548579
 20
-250.0916934236993
 30
0.0
 10
88.92305797548579
 20
-250.0916934236993
 30
0.0
  0
SPLINE
  5
42
330
1F
100
AcDbEntity
  8
_U+56FE_U+5C42 2
370
     0
100
AcDbSpline
210
0.0
220
0.0
230
1.0
 70
    11
 71
     3
 72
    17
 73
    13
 74
     0
 42
0.0000000001
 43
0.0000000001
 12
1.0
 22
0.0
 32
0.0
 13
1.0
 23
0.0
 33
0.0
 40
0.0
 40
0.0
 40
0.0
 40
0.0
 40
1.0
 40
1.0
 40
1.0
 40
2.0
 40
2.0
 40
2.0
 40
3.0
 40
3.0
 40
3.0
 40
4.0
 40
4.0
 40
4.0
 40
4.0
 10
329.8806525090531
 20
-243.4763079026998
 30
0.0
 10
329.8806525090531
 20
-244.0242439537469
 30
0.0
 10
329.4364625757917
 20
-244.4684338870666
 30
0.0
 10
328.8885265248191
 20
-244.4684338870666
 30
0.0
 10
328.3405904738484
 20
-244.4684338870666
 30
0.0
 10
327.8964005405869
 20
-244.0242439537469
 30
0.0
 10
327.8964005405869
 20
-243.4763079026998
 30
0.0
 10
327.8964005405869
 20
-242.9283718516544
 30
0.0
 10
328.3405904738484
 20
-242.4841819183348
 30
0.0
 10
328.8885265248191
 20
-242.4841819183348
 30
0.0
 10
329.4364625757917
 20
-242.4841819183348
 30
0.0
 10
329.8806525090531
 20
-242.9283718516544
 30
0.0
 10
329.8806525090531
 20
-243.4763079026998
 30
0.0
  0
HATCH
  5
43
330
1F
100
AcDbEntity
  8
_U+56FE_U+5C42 2
 62
   182
420
  1966273
100
AcDbHatch
 10
0.0
 20
0.0
 30
0.0
210
0.0
220
0.0
230
1.0
  2
SOLID
 70
     1
 71
     0
 91
        1
 92
        1
 93
        1
 72
     4
 94
        3
 73
     0
 74
     1
 95
       17
 96
       13
 40
0.0
 40
0.0
 40
0.0
 40
0.0
 40
1.0
 40
1.0
 40
1.0
 40
2.0
 40
2.0
 40
2.0
 40
3.0
 40
3.0
 40
3.0
 40
4.0
 40
4.0
 40
4.0
 40
4.0
 10
329.8806525090531
 20
-243.4763079026998
 10
329.8806525090531
 20
-244.0242439537469
 10
329.4364625757917
 20
-244.4684338870666
 10
328.8885265248191
 20
-244.4684338870666
 10
328.3405904738484
 20
-244.4684338870666
 10
327.8964005405869
 20
-244.0242439537469
 10
327.8964005405869
 20
-243.4763079026998
 10
327.8964005405869
 20
-242.9283718516544
 10
328.3405904738484
 20
-242.4841819183348
 10
328.8885265248191
 20
-242.4841819183348
 10
329.4364625757917
 20
-242.4841819183348
 10
329.8806525090531
 20
-242.9283718516544
 10
329.8806525090531
 20
-243.4763079026998
 97
        0
 97
        0
 75
     2
 76
     1
 98
        0
  0
SPLINE
  5
44
330
1F
100
AcDbEntity
  8
_U+56FE_U+5C42 2
370
     0
100
AcDbSpline
210
0.0
220
0.0
230
1.0
 70
    11
 71
     3
 72
    17
 73
    13
 74
     0
 42
0.0000000001
 43
0.0000000001
 12
1.0
 22
0.0
 32
0.0
 13
1.0
 23
0.0
 33
0.0
 40
0.0
 40
0.0
 40
0.0
 40
0.0
 40
1.0
 40
1.0
 40
1.0
 40
2.0
 40
2.0
 40
2.0
 40
3.0
 40
3.0
 40
3.0
 40
4.0
 40
4.0
 40
4.0
 40
4.0
 10
344.58154296875
 20
205.5370965902421
 30
0.0
 10
301.0045776367188
 20
135.7817865316483
 30
0.0
 10
222.4347534179688
 20
99.75364932461707
 30
0.0
 10
144.4541625976562
 20
105.8372674886796
 30
0.0
 10
142.9113159179688
 20
142.0231195394608
 30
0.0
 10
151.6953125
 20
178.4521966878983
 30
0.0
 10
172.0139770507812
 20
210.9770990316483
 30
0.0
 10
214.4739990234375
 20
278.9445062582108
 30
0.0
 10
295.4008178710938
 20
310.9061151449296
 30
0.0
 10
375.4510498046875
 20
298.9528680746171
 30
0.0
 10
372.9849853515625
 20
266.8748041097733
 30
0.0
 10
362.9082641601562
 20
234.8734003011796
 30
0.0
 10
344.58154296875
 20
205.5370965902421
 30
0.0
  0
INSERT
  5
46
330
1F
100
AcDbEntity
  8
_U+56FE_U+5C42 2
100
AcDbBlockReference
  2
block 2
 10
0.0
 20
0.0
 30
0.0
  0
INSERT
  5
58
330
1F
100
AcDbEntity
  8
_U+56FE_U+5C42 1
100
AcDbBlockReference
  2
block 3
 10
0.0
 20
0.0
 30
0.0
  0
ENDSEC
  0
SECTION
  2
OBJECTS
  0
DICTIONARY
  5
C
330
0
100
AcDbDictionary
281
     1
  3
ACAD_GROUP
350
D
  3
ACAD_LAYOUT
350
1A
  3
ACAD_MATERIAL
350
3B
  3
ACAD_MLEADERSTYLE
350
62
  3
ACAD_MLINESTYLE
350
17
  3
ACAD_PLOTSETTINGS
350
19
  3
ACAD_PLOTSTYLENAME
350
E
  3
ACAD_TABLESTYLE
350
61
  3
ACAD_VISUALSTYLE
350
2A
  0
SUN
  5
3F
330
29
100
AcDbSun
 90
        1
290
     0
 63
     7
421
 16777215
 40
1.0
291
     1
 91
  2455826
 92
 54000000
292
     0
 70
     2
 71
   256
280
     1
  0
DICTIONARY
  5
D
102
{ACAD_REACTORS
330
C
102
}
330
C
100
AcDbDictionary
281
     1
  0
DICTIONARY
  5
1A
102
{ACAD_REACTORS
330
C
102
}
330
C
100
AcDbDictionary
281
     1
  3
Layout1
350
1E
  3
Layout2
350
26
  3
Model
350
22
  0
DICTIONARY
  5
3B
102
{ACAD_REACTORS
330
C
102
}
330
C
100
AcDbDictionary
281
     1
  3
ByBlock
350
3D
  3
ByLayer
350
3C
  3
Global
350
3E
  0
DICTIONARY
  5
62
102
{ACAD_REACTORS
330
C
102
}
330
C
100
AcDbDictionary
281
     1
  0
DICTIONARY
  5
17
102
{ACAD_REACTORS
330
C
102
}
330
C
100
AcDbDictionary
281
     1
  3
Standard
350
18
  0
DICTIONARY
  5
19
102
{ACAD_REACTORS
330
C
102
}
330
C
100
AcDbDictionary
281
     1
  0
ACDBDICTIONARYWDFLT
  5
E
102
{ACAD_REACTORS
330
C
102
}
330
C
100
AcDbDictionary
281
     1
  3
Normal
350
F
100
AcDbDictionaryWithDefault
340
F
  0
DICTIONARY
  5
61
102
{ACAD_REACTORS
330
C
102
}
330
C
100
AcDbDictionary
281
     1
  0
DICTIONARY
  5
2A
102
{ACAD_REACTORS
330
C
102
}
330
C
100
AcDbDictionary
281
     1
  3
2dWireframe
350
2F
  3
3D Hidden
350
31
  3
3dWireframe
350
30
  3
Basic
350
32
  3
Brighten
350
36
  3
ColorChange
350
3A
  3
Conceptual
350
34
  3
Dim
350
35
  3
Facepattern
350
39
  3
Flat
350
2B
  3
FlatWithEdges
350
2C
  3
Gouraud
350
2D
  3
GouraudWithEdges
350
2E
  3
Linepattern
350
38
  3
Realistic
350
33
  3
Thicken
350
37
  0
LAYOUT
  5
1E
102
{ACAD_REACTORS
330
1A
102
}
330
1A
100
AcDbPlotSettings
  1

  2
none_device
  4

  6

 40
0.0
 41
0.0
 42
0.0
 43
0.0
 44
0.0
 45
0.0
 46
0.0
 47
0.0
 48
0.0
 49
0.0
140
0.0
141
0.0
142
1.0
143
1.0
 70
   688
 72
     0
 73
     0
 74
     5
  7

 75
    16
 76
     0
 77
     2
 78
   300
147
1.0
148
0.0
149
0.0
100
AcDbLayout
  1
Layout1
 70
     1
 71
     1
 10
0.0
 20
0.0
 11
12.0
 21
9.0
 12
0.0
 22
0.0
 32
0.0
 14
1.000000000000000E+20
 24
1.000000000000000E+20
 34
1.000000000000000E+20
 15
-1.000000000000000E+20
 25
-1.000000000000000E+20
 35
-1.000000000000000E+20
146
0.0
 13
0.0
 23
0.0
 33
0.0
 16
1.0
 26
0.0
 36
0.0
 17
0.0
 27
1.0
 37
0.0
 76
     0
330
1B
  0
LAYOUT
  5
26
102
{ACAD_REACTORS
330
1A
102
}
330
1A
100
AcDbPlotSettings
  1

  2
none_device
  4

  6

 40
0.0
 41
0.0
 42
0.0
 43
0.0
 44
0.0
 45
0.0
 46
0.0
 47
0.0
 48
0.0
 49
0.0
140
0.0
141
0.0
142
1.0
143
1.0
 70
   688
 72
     0
 73
     0
 74
     5
  7

 75
    16
 76
     0
 77
     2
 78
   300
147
1.0
148
0.0
149
0.0
100
AcDbLayout
  1
Layout2
 70
     1
 71
     2
 10
0.0
 20
0.0
 11
0.0
 21
0.0
 12
0.0
 22
0.0
 32
0.0
 14
0.0
 24
0.0
 34
0.0
 15
0.0
 25
0.0
 35
0.0
146
0.0
 13
0.0
 23
0.0
 33
0.0
 16
1.0
 26
0.0
 36
0.0
 17
0.0
 27
1.0
 37
0.0
 76
     0
330
23
  0
LAYOUT
  5
22
102
{ACAD_REACTORS
330
1A
102
}
330
1A
100
AcDbPlotSettings
  1

  2
none_device
  4

  6

 40
0.0
 41
0.0
 42
0.0
 43
0.0
 44
0.0
 45
0.0
 46
0.0
 47
0.0
 48
0.0
 49
0.0
140
0.0
141
0.0
142
1.0
143
1.0
 70
  1712
 72
     0
 73
     0
 74
     0
  7

 75
     0
 76
     0
 77
     2
 78
   300
147
1.0
148
0.0
149
0.0
100
AcDbLayout
  1
Model
 70
     1
 71
     0
 10
0.0
 20
0.0
 11
12.0
 21
9.0
 12
0.0
 22
0.0
 32
0.0
 14
1.000000000000000E+20
 24
1.000000000000000E+20
 34
1.000000000000000E+20
 15
-1.000000000000000E+20
 25
-1.000000000000000E+20
 35
-1.000000000000000E+20
146
0.0
 13
0.0
 23
0.0
 33
0.0
 16
1.0
 26
0.0
 36
0.0
 17
0.0
 27
1.0
 37
0.0
 76
     0
330
1F
331
29
  0
MATERIAL
  5
3D
102
{ACAD_REACTORS
330
3B
102
}
330
3B
100
AcDbMaterial
  1
ByBlock
 72
     1
 94
      127
  0
MATERIAL
  5
3C
102
{ACAD_REACTORS
330
3B
102
}
330
3B
100
AcDbMaterial
  1
ByLayer
 72
     1
 94
      127
  0
MATERIAL
  5
3E
102
{ACAD_REACTORS
330
3B
102
}
330
3B
100
AcDbMaterial
  1
Global
 72
     1
 94
      127
  0
MLINESTYLE
  5
18
102
{ACAD_REACTORS
330
17
102
}
330
17
100
AcDbMlineStyle
  2
Standard
 70
     0
  3

 62
   256
 51
90.0
 52
90.0
 71
     2
 49
0.5
 62
   256
  6
BYLAYER
 49
-0.5
 62
   256
  6
BYLAYER
  0
ACDBPLACEHOLDER
  5
F
102
{ACAD_REACTORS
330
E
102
}
330
E
  0
VISUALSTYLE
  5
2F
102
{ACAD_REACTORS
330
2A
102
}
330
2A
100
AcDbVisualStyle
  2
2dWireframe
 70
     4
177
     2
291
     0
 71
     0
176
     1
 72
     2
176
     1
 73
     0
176
     1
 90
        0
176
     1
 40
-0.6
176
     1
 41
-30.0
176
     1
 62
     5
 63
     7
421
 16777215
176
     1
 74
     1
176
     1
 91
        4
176
     1
 64
     7
176
     1
 65
   257
176
     1
 75
     1
176
     1
175
     1
176
     1
 42
1.0
176
     1
 92
        0
176
     1
 66
   257
176
     1
 43
1.0
176
     1
 76
     1
176
     1
 77
     6
176
     1
 78
     2
176
     1
 67
     7
176
     1
 79
     5
176
     1
170
     0
176
     1
171
     0
176
     1
290
     0
176
     1
 93
        1
176
     1
 44
0.0
176
     1
173
     0
176
     1
  0
VISUALSTYLE
  5
31
102
{ACAD_REACTORS
330
2A
102
}
330
2A
100
AcDbVisualStyle
  2
3D Hidden
 70
     6
177
     2
291
     0
 71
     1
176
     1
 72
     2
176
     1
 73
     2
176
     1
 90
        0
176
     1
 40
-0.6
176
     1
 41
-30.0
176
     1
 62
     5
 63
     7
421
 16777215
176
     1
 74
     2
176
     1
 91
        2
176
     1
 64
     7
176
     1
 65
   257
176
     1
 75
     2
176
     1
175
     1
176
     1
 42
40.0
176
     1
 92
        0
176
     1
 66
   257
176
     1
 43
1.0
176
     1
 76
     1
176
     1
 77
     6
176
     1
 78
     2
176
     1
 67
     7
176
     1
 79
     3
176
     1
170
     0
176
     1
171
     0
176
     1
290
     0
176
     1
 93
        1
176
     1
 44
0.0
176
     1
173
     0
176
     1
  0
VISUALSTYLE
  5
30
102
{ACAD_REACTORS
330
2A
102
}
330
2A
100
AcDbVisualStyle
  2
3dWireframe
 70
     5
177
     2
291
     0
 71
     0
176
     1
 72
     2
176
     1
 73
     0
176
     1
 90
        0
176
     1
 40
-0.6
176
     1
 41
-30.0
176
     1
 62
     5
 63
     7
421
 16777215
176
     1
 74
     1
176
     1
 91
        4
176
     1
 64
     7
176
     1
 65
   257
176
     1
 75
     1
176
     1
175
     1
176
     1
 42
1.0
176
     1
 92
        0
176
     1
 66
   257
176
     1
 43
1.0
176
     1
 76
     1
176
     1
 77
     6
176
     1
 78
     2
176
     1
 67
     7
176
     1
 79
     5
176
     1
170
     0
176
     1
171
     0
176
     1
290
     0
176
     1
 93
        1
176
     1
 44
0.0
176
     1
173
     0
176
     1
  0
VISUALSTYLE
  5
32
102
{ACAD_REACTORS
330
2A
102
}
330
2A
100
AcDbVisualStyle
  2
Basic
 70
     7
177
     2
291
     1
 71
     1
176
     1
 72
     0
176
     1
 73
     1
176
     1
 90
        0
176
     1
 40
-0.6
176
     1
 41
-30.0
176
     1
 62
     5
 63
     7
421
 16777215
176
     1
 74
     0
176
     1
 91
        4
176
     1
 64
     7
176
     1
 65
   257
176
     1
 75
     1
176
     1
175
     1
176
     1
 42
1.0
176
     1
 92
        8
176
     1
 66
     7
176
     1
 43
1.0
176
     1
 76
     1
176
     1
 77
     6
176
     1
 78
     2
176
     1
 67
     7
176
     1
 79
     5
176
     1
170
     0
176
     1
171
     0
176
     1
290
     0
176
     1
 93
        1
176
     1
 44
0.0
176
     1
173
     0
176
     1
  0
VISUALSTYLE
  5
36
102
{ACAD_REACTORS
330
2A
102
}
330
2A
100
AcDbVisualStyle
  2
Brighten
 70
    12
177
     2
291
     1
 71
     2
176
     1
 72
     2
176
     1
 73
     0
176
     1
 90
        0
176
     1
 40
-0.6
176
     1
 41
-30.0
176
     1
 62
     5
 63
     7
421
 16777215
176
     1
 74
     1
176
     1
 91
        4
176
     1
 64
     7
176
     1
 65
   257
176
     1
 75
     1
176
     1
175
     1
176
     1
 42
1.0
176
     1
 92
        8
176
     1
 66
     7
176
     1
 43
1.0
176
     1
 76
     1
176
     1
 77
     6
176
     1
 78
     2
176
     1
 67
     7
176
     1
 79
     5
176
     1
170
     0
176
     1
171
     0
176
     1
290
     0
176
     1
 93
        1
176
     1
 44
50.0
176
     1
173
     0
176
     1
  0
VISUALSTYLE
  5
3A
102
{ACAD_REACTORS
330
2A
102
}
330
2A
100
AcDbVisualStyle
  2
ColorChange
 70
    16
177
     2
291
     1
 71
     2
176
     1
 72
     2
176
     1
 73
     3
176
     1
 90
        0
176
     1
 40
-0.6
176
     1
 41
-30.0
176
     1
 62
     5
 63
     8
421
  8421504
176
     1
 74
     1
176
     1
 91
        4
176
     1
 64
     7
176
     1
 65
   257
176
     1
 75
     1
176
     1
175
     1
176
     1
 42
1.0
176
     1
 92
        8
176
     1
 66
     8
424
  8421504
176
     1
 43
1.0
176
     1
 76
     1
176
     1
 77
     6
176
     1
 78
     2
176
     1
 67
     7
176
     1
 79
     5
176
     1
170
     0
176
     1
171
     0
176
     1
290
     0
176
     1
 93
        1
176
     1
 44
0.0
176
     1
173
     0
176
     1
  0
VISUALSTYLE
  5
34
102
{ACAD_REACTORS
330
2A
102
}
330
2A
100
AcDbVisualStyle
  2
Conceptual
 70
     9
177
     2
291
     0
 71
     3
176
     1
 72
     2
176
     1
 73
     0
176
     1
 90
        0
176
     1
 40
-0.6
176
     1
 41
-30.0
176
     1
 62
     5
 63
     7
421
 16777215
176
     1
 74
     2
176
     1
 91
        2
176
     1
 64
     7
176
     1
 65
   257
176
     1
 75
     1
176
     1
175
     1
176
     1
 42
40.0
176
     1
 92
        8
176
     1
 66
     7
176
     1
 43
1.0
176
     1
 76
     1
176
     1
 77
     6
176
     1
 78
     2
176
     1
 67
     7
176
     1
 79
     3
176
     1
170
     0
176
     1
171
     0
176
     1
290
     0
176
     1
 93
        1
176
     1
 44
0.0
176
     1
173
     0
176
     1
  0
VISUALSTYLE
  5
35
102
{ACAD_REACTORS
330
2A
102
}
330
2A
100
AcDbVisualStyle
  2
Dim
 70
    11
177
     2
291
     1
 71
     2
176
     1
 72
     2
176
     1
 73
     0
176
     1
 90
        0
176
     1
 40
-0.6
176
     1
 41
-30.0
176
     1
 62
     5
 63
     7
421
 16777215
176
     1
 74
     1
176
     1
 91
        4
176
     1
 64
     7
176
     1
 65
   257
176
     1
 75
     1
176
     1
175
     1
176
     1
 42
1.0
176
     1
 92
        8
176
     1
 66
     7
176
     1
 43
1.0
176
     1
 76
     1
176
     1
 77
     6
176
     1
 78
     2
176
     1
 67
     7
176
     1
 79
     5
176
     1
170
     0
176
     1
171
     0
176
     1
290
     0
176
     1
 93
        1
176
     1
 44
-50.0
176
     1
173
     0
176
     1
  0
VISUALSTYLE
  5
39
102
{ACAD_REACTORS
330
2A
102
}
330
2A
100
AcDbVisualStyle
  2
Facepattern
 70
    15
177
     2
291
     1
 71
     2
176
     1
 72
     2
176
     1
 73
     0
176
     1
 90
        0
176
     1
 40
-0.6
176
     1
 41
-30.0
176
     1
 62
     5
 63
     7
421
 16777215
176
     1
 74
     1
176
     1
 91
        4
176
     1
 64
     7
176
     1
 65
   257
176
     1
 75
     1
176
     1
175
     1
176
     1
 42
1.0
176
     1
 92
        8
176
     1
 66
     7
176
     1
 43
1.0
176
     1
 76
     1
176
     1
 77
     6
176
     1
 78
     2
176
     1
 67
     7
176
     1
 79
     5
176
     1
170
     0
176
     1
171
     0
176
     1
290
     0
176
     1
 93
        1
176
     1
 44
0.0
176
     1
173
     0
176
     1
  0
VISUALSTYLE
  5
2B
102
{ACAD_REACTORS
330
2A
102
}
330
2A
100
AcDbVisualStyle
  2
Flat
 70
     0
177
     2
291
     1
 71
     2
176
     1
 72
     1
176
     1
 73
     1
176
     1
 90
        2
176
     1
 40
-0.6
176
     1
 41
30.0
176
     1
 62
     5
 63
     7
421
 16777215
176
     1
 74
     0
176
     1
 91
        4
176
     1
 64
     7
176
     1
 65
   257
176
     1
 75
     1
176
     1
175
     1
176
     1
 42
1.0
176
     1
 92
        8
176
     1
 66
     7
176
     1
 43
1.0
176
     1
 76
     1
176
     1
 77
     6
176
     1
 78
     2
176
     1
 67
     7
176
     1
 79
     5
176
     1
170
     0
176
     1
171
     0
176
     1
290
     0
176
     1
 93
       13
176
     1
 44
0.0
176
     1
173
     0
176
     1
  0
VISUALSTYLE
  5
2C
102
{ACAD_REACTORS
330
2A
102
}
330
2A
100
AcDbVisualStyle
  2
FlatWithEdges
 70
     1
177
     2
291
     1
 71
     2
176
     1
 72
     1
176
     1
 73
     1
176
     1
 90
        2
176
     1
 40
-0.6
176
     1
 41
30.0
176
     1
 62
     5
 63
     7
421
 16777215
176
     1
 74
     1
176
     1
 91
        4
176
     1
 64
     7
176
     1
 65
   257
176
     1
 75
     1
176
     1
175
     1
176
     1
 42
1.0
176
     1
 92
        0
176
     1
 66
   257
176
     1
 43
1.0
176
     1
 76
     1
176
     1
 77
     6
176
     1
 78
     2
176
     1
 67
     7
176
     1
 79
     5
176
     1
170
     0
176
     1
171
     0
176
     1
290
     0
176
     1
 93
       13
176
     1
 44
0.0
176
     1
173
     0
176
     1
  0
VISUALSTYLE
  5
2D
102
{ACAD_REACTORS
330
2A
102
}
330
2A
100
AcDbVisualStyle
  2
Gouraud
 70
     2
177
     2
291
     1
 71
     2
176
     1
 72
     2
176
     1
 73
     1
176
     1
 90
        2
176
     1
 40
-0.6
176
     1
 41
30.0
176
     1
 62
     5
 63
     7
421
 16777215
176
     1
 74
     0
176
     1
 91
        4
176
     1
 64
     7
176
     1
 65
   257
176
     1
 75
     1
176
     1
175
     1
176
     1
 42
1.0
176
     1
 92
        0
176
     1
 66
     7
176
     1
 43
1.0
176
     1
 76
     1
176
     1
 77
     6
176
     1
 78
     2
176
     1
 67
     7
176
     1
 79
     5
176
     1
170
     0
176
     1
171
     0
176
     1
290
     0
176
     1
 93
       13
176
     1
 44
0.0
176
     1
173
     0
176
     1
  0
VISUALSTYLE
  5
2E
102
{ACAD_REACTORS
330
2A
102
}
330
2A
100
AcDbVisualStyle
  2
GouraudWithEdges
 70
     3
177
     2
291
     1
 71
     2
176
     1
 72
     2
176
     1
 73
     1
176
     1
 90
        2
176
     1
 40
-0.6
176
     1
 41
30.0
176
     1
 62
     5
 63
     7
421
 16777215
176
     1
 74
     1
176
     1
 91
        4
176
     1
 64
     7
176
     1
 65
   257
176
     1
 75
     1
176
     1
175
     1
176
     1
 42
1.0
176
     1
 92
        0
176
     1
 66
   257
176
     1
 43
1.0
176
     1
 76
     1
176
     1
 77
     6
176
     1
 78
     2
176
     1
 67
     7
176
     1
 79
     5
176
     1
170
     0
176
     1
171
     0
176
     1
290
     0
176
     1
 93
       13
176
     1
 44
0.0
176
     1
173
     0
176
     1
  0
VISUALSTYLE
  5
38
102
{ACAD_REACTORS
330
2A
102
}
330
2A
100
AcDbVisualStyle
  2
Linepattern
 70
    14
177
     2
291
     1
 71
     2
176
     1
 72
     2
176
     1
 73
     0
176
     1
 90
        0
176
     1
 40
-0.6
176
     1
 41
-30.0
176
     1
 62
     5
 63
     7
421
 16777215
176
     1
 74
     1
176
     1
 91
        4
176
     1
 64
     7
176
     1
 65
   257
176
     1
 75
     7
176
     1
175
     7
176
     1
 42
1.0
176
     1
 92
        8
176
     1
 66
     7
176
     1
 43
1.0
176
     1
 76
     1
176
     1
 77
     6
176
     1
 78
     2
176
     1
 67
     7
176
     1
 79
     5
176
     1
170
     0
176
     1
171
     0
176
     1
290
     0
176
     1
 93
        1
176
     1
 44
0.0
176
     1
173
     0
176
     1
  0
VISUALSTYLE
  5
33
102
{ACAD_REACTORS
330
2A
102
}
330
2A
100
AcDbVisualStyle
  2
Realistic
 70
     8
177
     2
291
     0
 71
     2
176
     1
 72
     2
176
     1
 73
     0
176
     1
 90
        0
176
     1
 40
-0.6
176
     1
 41
-30.0
176
     1
 62
     5
 63
     7
421
 16777215
176
     1
 74
     1
176
     1
 91
        0
176
     1
 64
     7
176
     1
 65
   257
176
     1
 75
     1
176
     1
175
     1
176
     1
 42
1.0
176
     1
 92
        8
176
     1
 66
     8
424
  7895160
176
     1
 43
1.0
176
     1
 76
     1
176
     1
 77
     6
176
     1
 78
     2
176
     1
 67
     7
176
     1
 79
     5
176
     1
170
     0
176
     1
171
     0
176
     1
290
     0
176
     1
 93
       13
176
     1
 44
0.0
176
     1
173
     0
176
     1
  0
VISUALSTYLE
  5
37
102
{ACAD_REACTORS
330
2A
102
}
330
2A
100
AcDbVisualStyle
  2
Thicken
 70
    13
177
     2
291
     1
 71
     2
176
     1
 72
     2
176
     1
 73
     0
176
     1
 90
        0
176
     1
 40
-0.6
176
     1
 41
-30.0
176
     1
 62
     5
 63
     7
421
 16777215
176
     1
 74
     1
176
     1
 91
        4
176
     1
 64
     7
176
     1
 65
   257
176
     1
 75
     1
176
     1
175
     1
176
     1
 42
1.0
176
     1
 92
       12
176
     1
 66
     7
176
     1
 43
1.0
176
     1
 76
     1
176
     1
 77
     6
176
     1
 78
     2
176
     1
 67
     7
176
     1
 79
     5
176
     1
170
     0
176
     1
171
     0
176
     1
290
     0
176
     1
 93
        1
176
     1
 44
0.0
176
     1
173
     0
176
     1
  0
ENDSEC
  0
EOF
