<?xml version="1.0" encoding="utf-8"?>
<!-- Generator: Adobe Illustrator 23.1.0, SVG Export Plug-In . SVG Version: 6.00 Build 0)  -->
<svg version="1.1" id="图层_1" xmlns="http://www.w3.org/2000/svg" xmlns:xlink="http://www.w3.org/1999/xlink" x="0px" y="0px"
	 viewBox="0 0 1342.9 668.5" style="enable-background:new 0 0 1342.9 668.5;" xml:space="preserve">
<style type="text/css">
	.st0{fill:url(#SVGID_1_);}
	.st1{fill:url(#SVGID_2_);}
	.st2{fill:url(#SVGID_3_);}
	.st3{fill:url(#SVGID_4_);}
	.st4{fill:url(#SVGID_5_);}
	.st5{fill:url(#SVGID_6_);}
	.st6{fill:url(#SVGID_7_);}
	.st7{fill:#FFFFFF;}
</style>
<title>无背景图标</title>
<linearGradient id="SVGID_1_" gradientUnits="userSpaceOnUse" x1="544.4175" y1="-1350.1812" x2="758.7275" y2="-1200.4412" gradientTransform="matrix(0.981 -0.1939 0.1939 0.981 435.2 1701.7307)">
	<stop  offset="0" style="stop-color:#D1086A"/>
	<stop  offset="0.64" style="stop-color:#940094"/>
</linearGradient>
<path class="st0" d="M789.4,466.9c-8.8-36-6.5-73.8,6.7-108.5c28.4-74.8,101.4-121.8,182.1-125.7l0.5-0.6
	c-31.9-18.3-71.2-25.5-111.2-17.6c-84.4,16.7-140.1,94.6-124.4,174c6.1,30.8,22.4,58.6,46.3,79.1l0.6-0.8L789.4,466.9z"/>
<linearGradient id="SVGID_2_" gradientUnits="userSpaceOnUse" x1="629.5361" y1="-1255.3561" x2="852.4363" y2="-1045.416" gradientTransform="matrix(0.981 -0.1939 0.1939 0.981 435.2 1701.7307)">
	<stop  offset="0.23" style="stop-color:#646ABF"/>
	<stop  offset="0.73" style="stop-color:#412D84"/>
</linearGradient>
<path class="st1" d="M978.3,232l-0.5,0.6h0.4c3.9,33-0.2,66.5-12.1,97.6c-29.2,76.7-99,127.2-176.5,136.6l-0.6,0.8l-9.3,77.6
	c-0.6,5.4,3.2,10.3,8.6,10.9c2,0.2,4.1-0.2,5.9-1.1l90.6-49.8c13.1,0.6,26.3-0.4,39.2-3c84.4-16.7,140.1-94.6,124.4-174
	C1040.1,286.2,1013.7,252.3,978.3,232z"/>
<linearGradient id="SVGID_3_" gradientUnits="userSpaceOnUse" x1="574.743" y1="-1136.8926" x2="816.583" y2="-1343.6125" gradientTransform="matrix(0.981 -0.1939 0.1939 0.981 435.2 1701.7307)">
	<stop  offset="0" style="stop-color:#611D66"/>
	<stop  offset="1" style="stop-color:#43175E"/>
</linearGradient>
<path class="st2" d="M978.4,232.6c3.9,33-0.3,66.6-12.2,97.6c-29.2,76.9-99.3,127.5-177,136.6c-8.9-36-6.5-73.8,6.6-108.5
	C824.4,283.4,897.6,236.4,978.4,232.6"/>
<linearGradient id="SVGID_4_" gradientUnits="userSpaceOnUse" x1="215.3192" y1="-1256.2064" x2="457.1593" y2="-1462.9265" gradientTransform="matrix(0.972 -0.2349 0.2349 0.972 460.3913 1771.8263)">
	<stop  offset="0" style="stop-color:#611D66"/>
	<stop  offset="1" style="stop-color:#43175E"/>
</linearGradient>
<path class="st3" d="M535.5,228.9c5.3,32.9,2.5,66.5-8.1,98.1c-26,78.1-93.9,131.5-171.1,143.9"/>
<linearGradient id="SVGID_5_" gradientUnits="userSpaceOnUse" x1="272.2417" y1="-1544.1023" x2="339.7161" y2="-1291.5193" gradientTransform="matrix(0.972 -0.2349 0.2349 0.972 460.3913 1771.8263)">
	<stop  offset="8.627156e-02" style="stop-color:#D1086A"/>
	<stop  offset="0.9183" style="stop-color:#940094"/>
</linearGradient>
<path class="st4" d="M357.5,471.9c-10.3-35.6-9.6-73.5,2.1-108.7c25.2-75.9,96.2-126,176.7-133.3l0.4-0.6
	c-32.6-16.9-72.2-22.5-111.8-12.9c-83.6,20.2-136,100.4-117,179.1c7.4,30.5,24.9,57.7,49.6,77.1l0.6-0.8L357.5,471.9z"/>
<linearGradient id="SVGID_6_" gradientUnits="userSpaceOnUse" x1="276.8701" y1="-1415.788" x2="421.1316" y2="-1145.6995" gradientTransform="matrix(0.972 -0.2349 0.2349 0.972 460.3913 1771.8263)">
	<stop  offset="0.2425" style="stop-color:#646ABF"/>
	<stop  offset="0.6192" style="stop-color:#412D84"/>
</linearGradient>
<path class="st5" d="M535.1,228.4l-0.4,0.6h0.4c5.3,32.8,2.6,66.5-8,98c-26,77.8-93.6,131.3-170.6,143.8l-0.6,0.8l4.3,74
	c4.1,39.4,24.3,46,83.7-15.6l20.9-21.4c12.3-6.7,12.7-3.3,27.4-8.2c83.6-20.2,136-100.4,117-179.1
	C599.1,280,571.3,247.2,535.1,228.4z"/>
<g>
	
		<image style="overflow:visible;enable-background:new    ;" width="259" height="315" xlink:href="801F34FC.png"  transform="matrix(1 0 0 1 310 191.45)">
	</image>
</g>
<linearGradient id="SVGID_7_" gradientUnits="userSpaceOnUse" x1="192.4667" y1="-1282.0062" x2="434.3067" y2="-1488.7262" gradientTransform="matrix(0.972 -0.2349 0.2349 0.972 460.3913 1771.8263)">
	<stop  offset="0" style="stop-color:#611D66"/>
	<stop  offset="1" style="stop-color:#43175E"/>
</linearGradient>
<path class="st6" d="M535.8,229.9c5.3,32.9,2.5,66.5-8.1,98.1c-26,78.1-93.9,131.5-171.1,143.9c-10.4-35.6-9.6-73.5,2.1-108.7
	C384,287.2,455.1,237.1,535.8,229.9"/>
<g>
	<path class="st7" d="M522.4,371.9c-5.3,0.6-11.1,1.3-17,2c-13.1,1.5-26.2,2.6-39.3,4.4c-10.8,1.4-21.6,2.7-32.4,3.7
		c-4.8,0.5-9.7,1.3-13,5.1c-4,4.6-4.1,11.8-0.3,17.1c3.2,4.5,8.2,5.7,13.6,5c14.8-2,29.6-3.9,44.3-6.4c1.1-0.2,2.5-1.3,3.3,0
		c0.8,1.2-0.5,2.4-1.1,3.5c-4,7.4-9.3,13.9-14.7,20.4c-4.3,5.1-8,10.6-12.5,15.6c-2.3,2.6-3.9,5.8-4.5,9.2
		c-0.9,5.2,1.3,8.5,5.8,10.9c6.5,3.4,15.7,0.1,20-4.5c4.9-5.2,10.1-10,14.4-15.7c5.9-8,13-14.9,19.2-22.7c1.4-2,3-4,4.7-5.8
		c6.5-6.1,11.8-13.1,17.9-19.6c1.4-1.6,2.6-3.5,3.4-5.5C538.4,378.5,530.7,372.2,522.4,371.9z"/>
	<path class="st7" d="M536.9,320.2c-9.5,0.9-19.1,1.8-28.6,2.9c-17.3,1.9-34.6,3.8-51.9,5.7c-11,1.2-22.1,2.4-33.1,3.8
		c-8.1,1-16.3,1.4-24.3,3.2c-2.1,0.5-3.9,1.1-5.2,3c-4.9,7.8-4.1,13.7,2.8,20c1.5,1.5,3.6,2.1,5.7,1.7c10.1-1.7,20.3-2.4,30.5-3.6
		c25.2-3,50.4-5.5,75.6-8.2c11.4-1.2,22.7-2.2,34.1-3.7c7.7-1,9.1-2.9,9.1-10.6c0.1-0.3,0.1-0.6,0.1-0.8
		C550.7,322.4,548.1,319.2,536.9,320.2z"/>
	<path class="st7" d="M558.6,266.5c-3,0.2-6.1,0.4-9.1,0.7c-12,1.2-24.1,2.3-36,3.6c-15.2,1.7-30.4,3.8-45.7,5.6
		c-17.6,2.2-35.2,3.9-52.8,6.3c-17.6,2.4-35.4,4.4-53,7.5c-6.5,1.1-7.7,1.9-8.9,8.2c-0.3,1.3-0.3,2.8-0.4,4.1h0.2c0,0.9,0,1.7,0,2.6
		c1,9.2,4.3,12.5,12,11.2c16.2-2.7,32.4-5.4,48.7-7.4c11.9-1.4,23.8-2.9,35.7-4.4c14.4-1.7,28.7-3.4,43.1-5c9.5-1.1,19-2,28.6-3
		c12.9-1.4,25.7-2.7,38.6-4.3c5.3-0.7,7.7-3.5,7.6-8.7c-0.1-5.2-1.5-10.2-4.1-14.7C562.1,267.2,560.3,266.2,558.6,266.5z"/>
</g>
<g>
	<path class="st7" d="M949.5,375c-5.3,0.6-11.1,1.3-17,2c-13.1,1.5-26.2,2.6-39.3,4.4c-10.8,1.4-21.6,2.7-32.4,3.7
		c-4.8,0.5-9.7,1.3-13,5.1c-4,4.6-4.1,11.8-0.3,17.1c3.2,4.5,8.2,5.7,13.6,5c14.8-2,29.6-3.9,44.3-6.4c1.1-0.2,2.5-1.3,3.3,0
		c0.8,1.2-0.5,2.4-1.1,3.5c-4,7.4-9.3,13.9-14.7,20.4c-4.3,5.1-8,10.6-12.5,15.6c-2.3,2.6-3.9,5.8-4.5,9.2
		c-0.9,5.2,1.3,8.5,5.8,10.9c6.5,3.4,15.7,0.1,20-4.5c4.9-5.2,10.1-10,14.4-15.7c5.9-8,13-14.9,19.2-22.7c1.4-2,3-4,4.7-5.8
		c6.5-6.1,11.8-13.1,17.9-19.6c1.4-1.6,2.6-3.5,3.4-5.5C965.5,381.5,957.8,375.2,949.5,375z"/>
	<path class="st7" d="M964,323.3c-9.5,0.9-19.1,1.8-28.6,2.9c-17.3,1.9-34.6,3.8-51.9,5.7c-11,1.2-22.1,2.4-33.1,3.8
		c-8.1,1-16.3,1.4-24.3,3.2c-2.1,0.5-3.9,1.1-5.2,3c-4.9,7.8-4.1,13.7,2.8,20c1.5,1.5,3.6,2.1,5.7,1.7c10.1-1.7,20.3-2.4,30.5-3.6
		c25.2-3,50.4-5.5,75.6-8.2c11.4-1.2,22.7-2.2,34.1-3.7c7.7-1,9.1-2.9,9.1-10.6c0.1-0.3,0.1-0.6,0.1-0.8
		C977.8,325.4,975.2,322.2,964,323.3z"/>
	<path class="st7" d="M985.7,269.5c-3,0.2-6.1,0.4-9.1,0.7c-12,1.2-24.1,2.3-36,3.6c-15.2,1.7-30.4,3.8-45.7,5.6
		c-17.6,2.2-35.2,3.9-52.8,6.3s-35.4,4.4-53,7.5c-6.5,1.1-7.7,1.9-8.9,8.2c-0.3,1.3-0.3,2.8-0.4,4.1h0.2c0,0.9,0,1.7,0,2.6
		c1,9.2,4.3,12.5,12,11.2c16.2-2.7,32.4-5.4,48.7-7.4c11.9-1.4,23.8-2.9,35.7-4.4c14.4-1.7,28.7-3.4,43.1-5c9.5-1.1,19-2,28.6-3
		c12.9-1.4,25.7-2.7,38.6-4.3c5.3-0.7,7.7-3.5,7.6-8.7c-0.1-5.2-1.5-10.2-4.1-14.7C989.2,270.2,987.5,269.3,985.7,269.5z"/>
</g>
</svg>
